<svg width="56" height="53" viewBox="0 0 56 53" fill="none" xmlns="http://www.w3.org/2000/svg">
<path d="M52.5356 43.5363C53.3658 43.3591 53.96 43.2049 53.7885 43.2018C53.3884 43.246 52.9697 43.3623 52.5356 43.5363Z" fill="#B384FF"/>
<path d="M1.97063 1.00031C3.33365 7.36789 4.53994 18.8303 6.56921 25.6982C8.07144 30.7824 13.096 31.3745 13.165 22.5792C13.2202 15.5429 13.1657 13.3119 13.1315 13.076C16.0186 23.5369 27.2287 44.3772 48.9717 44.0516C49.7814 44.1794 54.2212 43.2095 53.7885 43.2018M53.7885 43.2018C50.4963 43.5653 45.9548 48.8089 41.8336 50.9211M53.7885 43.2018C45.7131 43.057 40.3444 39.6381 38.6695 37.9467" stroke="#B07DFF" stroke-width="3"/>
</svg>
