<svg width="1728" height="2313" viewBox="0 0 1728 2313" fill="none" xmlns="http://www.w3.org/2000/svg">
<path d="M612 2273.82C616.619 2251.84 640.852 2226.76 655.296 2209.46C705.717 2149.05 759.072 2090.08 810.757 2030.45C865.644 1967.14 925.981 1905.28 993.531 1851.7C1033.3 1820.16 1081.22 1787.19 1134.46 1774.52C1192.72 1760.66 1218.73 1805.96 1218.73 1850.95C1218.73 1940.5 1160.19 2007.29 1125.74 2088.28C1106.81 2132.8 1077.48 2210.38 1105.99 2256.72C1149.58 2327.58 1266.6 2209.28 1296.61 2180.8C1471.34 2014.92 1582.33 1796.03 1815 1681" stroke="#F3F4F5" stroke-width="68" stroke-linecap="round"/>
<path d="M1817 380.565C1786.45 487.03 1271.41 980.394 1149.09 1038.63C1082.88 1070.16 1028.22 1049.98 988.711 1024.47C893.035 962.678 855.204 860.158 850.805 747.697C849.034 702.428 853.515 655.24 862.21 607.466C867.943 575.963 875.225 543.66 891.821 511.289C902.309 490.831 934.402 441.033 967.471 445.469C986.295 447.995 997.521 464.559 1004.51 476.935C1021.55 507.09 1023.14 544.28 1016.53 582.953C1006.48 641.69 979.488 702.767 948.489 762.471C911.894 832.954 866.66 902.267 809.152 968.393C765.123 1019.02 694.25 1098.59 619.921 1118.5C592.219 1125.92 572.514 1114.35 558.279 1102.16C518.777 1068.35 500.616 1018.26 490.365 968.186C470.642 871.837 468.179 763.073 483.266 656.093C487.498 626.091 492.205 577.358 544.537 586.582C611.224 598.336 661.433 650.29 667.278 707.357C673.587 768.965 645.6 843.613 615.351 910.26C559.323 1033.71 473.735 1155.21 370.88 1269.01C255.139 1397.06 115.512 1521.23 -38.3377 1620.99C-77.3075 1646.26 -109.509 1667.35 -146.188 1657.82" stroke="#04192F" stroke-opacity="0.05" stroke-width="68" stroke-linecap="round"/>
</svg>
