<svg width="17" height="18" viewBox="0 0 17 18" fill="none" xmlns="http://www.w3.org/2000/svg">
<path d="M16.5468 2.72921C16.6885 2.584 16.8016 2.41027 16.8793 2.21817C16.9571 2.02606 16.9981 1.81943 16.9999 1.61032C17.0017 1.4012 16.9643 1.1938 16.8898 1.00022C16.8154 0.806634 16.7054 0.63074 16.5662 0.482799C16.4271 0.334859 16.2616 0.217836 16.0794 0.138557C15.8972 0.0592791 15.702 0.0193341 15.5051 0.0210519C15.3082 0.0227698 15.1136 0.0661165 14.9327 0.148563C14.7517 0.23101 14.5881 0.350906 14.4512 0.501254L8.5084 6.81133L2.56754 0.501254C2.43179 0.346522 2.2681 0.222416 2.08621 0.136339C1.90433 0.0502612 1.70799 0.00397609 1.5089 0.000245095C1.30981 -0.0034859 1.11206 0.0354137 0.927428 0.114623C0.742801 0.193831 0.575085 0.311727 0.434286 0.461277C0.293487 0.610826 0.18249 0.788964 0.107916 0.985066C0.0333416 1.18117 -0.00328193 1.39122 0.000230754 1.60268C0.00374344 1.81414 0.0473203 2.02268 0.128361 2.21587C0.209402 2.40905 0.326246 2.58293 0.471924 2.72711L6.40883 9.03928L0.467971 15.3494C0.206059 15.6479 0.0634715 16.0428 0.0702491 16.4508C0.0770266 16.8588 0.23264 17.2481 0.504304 17.5366C0.775969 17.8252 1.14247 17.9905 1.5266 17.9977C1.91074 18.0049 2.2825 17.8534 2.56358 17.5752L8.5084 11.2651L14.4493 17.5773C14.7303 17.8555 15.1021 18.007 15.4862 17.9998C15.8704 17.9926 16.2369 17.8273 16.5085 17.5387C16.7802 17.2502 16.9358 16.8609 16.9426 16.4529C16.9494 16.0449 16.8068 15.65 16.5449 15.3515L10.608 9.03928L16.5468 2.72921Z" fill="black"/>
</svg>
