<svg width="153" height="161" viewBox="0 0 153 161" fill="none" xmlns="http://www.w3.org/2000/svg">
<rect y="56.9297" width="152.372" height="41.8603" rx="7.53486" fill="#6500FF"/>
<rect x="54.4189" y="60.5156" width="33.4883" height="33.4883" rx="7.53486" transform="rotate(-45 54.4189 60.5156)" fill="#6500FF"/>
<path d="M46.6322 76.8791L46.3978 78.3023H44.5225L44.2546 79.9768H46.1299L45.9122 81.4H44.0201L43.5513 84.1628H42.0611L42.5299 81.4H40.6546L40.1857 84.1628H38.6955L39.1643 81.4H37.2555L37.4899 79.9768H39.3988L39.6667 78.3023H37.7578L37.9923 76.8791H39.9178L40.3699 74.1163H41.8602L41.4081 76.8791H43.2834L43.7355 74.1163H45.2257L44.7736 76.8791H46.6322ZM40.889 79.9768H42.7643L43.0322 78.3023H41.1569L40.889 79.9768ZM50.1544 79.9935V83.1581H55.3451V85H48.2288V73.2791H55.2613V75.121H50.1544V78.1684H54.8427V79.9935H50.1544ZM62.064 78.9721L65.731 85H63.5375L60.9589 80.7637L58.3803 85H56.1868L59.8706 78.9721L56.4045 73.2791H58.5813L60.9589 77.1805L63.3366 73.2791H65.5301L62.064 78.9721ZM67.1477 73.2791H71.4677C72.5728 73.2791 73.4937 73.6475 74.2305 74.3842C74.9784 75.121 75.3523 76.0363 75.3523 77.1303C75.3523 78.213 74.9784 79.1284 74.2305 79.8763C73.4937 80.613 72.5728 80.9814 71.4677 80.9814H69.0733V85H67.1477V73.2791ZM69.0733 79.173H71.4677C72.037 79.173 72.5058 78.9833 72.8742 78.6037C73.2426 78.213 73.4268 77.7219 73.4268 77.1303C73.4268 76.5386 73.2426 76.0531 72.8742 75.6735C72.5058 75.2828 72.037 75.0875 71.4677 75.0875H69.0733V79.173ZM78.9497 73.2791V83.1581H83.7218V85H77.0241V73.2791H78.9497ZM94.1941 83.4595C93.022 84.6316 91.5876 85.2177 89.8908 85.2177C88.1941 85.2177 86.7541 84.6316 85.5708 83.4595C84.3988 82.2763 83.8127 80.8363 83.8127 79.1396C83.8127 77.4428 84.3988 76.0084 85.5708 74.8363C86.7541 73.6531 88.1941 73.0614 89.8908 73.0614C91.5876 73.0614 93.022 73.6531 94.1941 74.8363C95.3773 76.0084 95.9689 77.4428 95.9689 79.1396C95.9689 80.8363 95.3773 82.2763 94.1941 83.4595ZM86.9271 82.1535C87.742 82.9461 88.7299 83.3423 89.8908 83.3423C91.0629 83.3423 92.0452 82.9461 92.8378 82.1535C93.6415 81.3498 94.0434 80.3451 94.0434 79.1396C94.0434 77.934 93.6415 76.9349 92.8378 76.1424C92.0452 75.3386 91.0629 74.9368 89.8908 74.9368C88.7187 74.9368 87.7308 75.3386 86.9271 76.1424C86.1346 76.9349 85.7383 77.934 85.7383 79.1396C85.7383 80.334 86.1346 81.3386 86.9271 82.1535ZM106.516 85H104.406L101.928 80.7302H99.651V85H97.7254V73.2791H102.414C103.463 73.2791 104.35 73.6475 105.076 74.3842C105.813 75.0986 106.181 75.9861 106.181 77.0465C106.181 77.7944 105.963 78.481 105.528 79.1061C105.104 79.72 104.546 80.1665 103.854 80.4456L106.516 85ZM102.414 75.0875H99.651V79.0056H102.414C102.927 79.0056 103.363 78.8158 103.72 78.4363C104.077 78.0568 104.256 77.5935 104.256 77.0465C104.256 76.4996 104.077 76.0363 103.72 75.6568C103.363 75.2772 102.927 75.0875 102.414 75.0875ZM109.92 79.9935V83.1581H115.11V85H107.994V73.2791H115.027V75.121H109.92V78.1684H114.608V79.9935H109.92Z" fill="white"/>
</svg>
