<svg width="369" height="513" viewBox="0 0 369 513" fill="none" xmlns="http://www.w3.org/2000/svg">
<path d="M316.01 43.521C305.538 56.1743 124.514 194.639 163.607 252.804C175.004 268.158 213.334 269.263 222.702 251.562C246.985 217.967 193.023 144.763 129.581 173.433C60.9442 204.451 -17.2067 337.08 35.4759 407.715C85.6273 474.956 215.923 471.016 290.543 477.249" stroke="#6500FF" stroke-width="6.67888" stroke-linecap="round"/>
<path d="M152.944 508.558C181.572 503.641 209.894 497.153 238.559 492.451C261.137 488.748 284.168 486.578 306.596 482.092C311.091 481.193 330.756 480.454 316.955 478.75C279.535 474.131 250.502 450.195 227.33 421.607C220.023 412.591 214.002 402.77 208.817 392.401C207.399 389.564 206.725 385.497 204.674 383.445" stroke="#6500FF" stroke-width="7.51374" stroke-linecap="round"/>
</svg>
