<svg width="24" height="23" viewBox="0 0 24 23" fill="none" xmlns="http://www.w3.org/2000/svg">
<path d="M1.30286 6.36078C2.32209 4.47203 3.88509 2.88429 5.81731 1.77486C7.74952 0.665425 9.97489 0.0779808 12.2449 0.078125C15.5449 0.078125 18.3171 1.20809 20.4367 3.04842L16.9261 6.31859C15.6563 5.18863 14.0424 4.61281 12.2449 4.61281C9.0551 4.61281 6.3551 6.61961 5.39388 9.31397C5.14898 9.99811 5.00939 10.7279 5.00939 11.4804C5.00939 12.233 5.14898 12.9627 5.39388 13.6468C6.35633 16.3423 9.0551 18.348 12.2449 18.348C13.8918 18.348 15.2939 17.9432 16.391 17.2591C17.0271 16.8691 17.5716 16.3631 17.9917 15.7717C18.4118 15.1802 18.6987 14.5155 18.8351 13.8179H12.2449V9.40747H23.7771C23.9216 10.1532 24 10.9308 24 11.7392C24 15.2124 22.6653 18.1359 20.3486 20.1199C18.3233 21.8622 15.551 22.8827 12.2449 22.8827C10.6367 22.8833 9.04413 22.5888 7.55822 22.016C6.07231 21.4432 4.72218 20.6033 3.58501 19.5444C2.44784 18.4855 1.54591 17.2282 0.930777 15.8446C0.315642 14.4609 -0.000642687 12.9779 9.80467e-07 11.4804C9.80467e-07 9.64008 0.472654 7.90009 1.30286 6.36078Z" fill="#04192F"/>
</svg>
