<svg width="179" height="89" viewBox="0 0 179 89" fill="none" xmlns="http://www.w3.org/2000/svg">
<path d="M11.2232 24.3971C9.62811 24.3971 8.25051 23.8413 7.09043 22.7295C5.97868 21.5694 5.42281 20.216 5.42281 18.6692C5.42281 17.1225 5.97868 15.769 7.09043 14.609C8.25051 13.4489 9.62811 12.8688 11.2232 12.8688C12.77 12.8688 14.0993 13.4489 15.211 14.609C16.3711 15.769 16.9511 17.1225 16.9511 18.6692C16.9511 20.216 16.3711 21.5694 15.211 22.7295C14.0993 23.8413 12.77 24.3971 11.2232 24.3971ZM6.51039 65.7251V28.7475H15.8635V65.7251C15.8635 71.0421 14.5585 74.909 11.9483 77.3259C9.38642 79.791 5.42281 80.8544 0.0574337 80.5161V71.5255C2.28092 71.6705 3.9002 71.2838 4.91528 70.3654C5.97868 69.447 6.51039 67.9002 6.51039 65.7251ZM51.6573 60.5047C47.9837 64.1783 43.44 66.0151 38.0263 66.0151C32.6126 66.0151 28.0689 64.1783 24.3954 60.5047C20.7218 56.8311 18.885 52.2874 18.885 46.8737C18.885 41.5083 20.7218 36.9889 24.3954 33.3153C28.1173 29.5933 32.6609 27.7324 38.0263 27.7324C43.3917 27.7324 47.9353 29.5933 51.6573 33.3153C55.3792 37.0372 57.2402 41.5567 57.2402 46.8737C57.2402 52.2391 55.3792 56.7828 51.6573 60.5047ZM30.9933 54.0517C32.8785 55.9369 35.2228 56.8794 38.0263 56.8794C40.8298 56.8794 43.1742 55.9369 45.0593 54.0517C46.9444 52.1666 47.887 49.7739 47.887 46.8737C47.887 43.9735 46.9444 41.5809 45.0593 39.6957C43.1742 37.8106 40.8298 36.868 38.0263 36.868C35.2228 36.868 32.8785 37.8106 30.9933 39.6957C29.1565 41.6292 28.2381 44.0219 28.2381 46.8737C28.2381 49.7256 29.1565 52.1183 30.9933 54.0517ZM81.2937 27.7324C86.1757 27.7324 90.3327 29.5933 93.7646 33.3153C97.2449 37.0372 98.985 41.5567 98.985 46.8737C98.985 52.2874 97.2449 56.8311 93.7646 60.5047C90.381 64.1783 86.2241 66.0151 81.2937 66.0151C76.2184 66.0151 72.3031 64.2508 69.5479 60.7222V65H60.1947V14.2464H69.5479V33.0253C72.3031 29.4967 76.2184 27.7324 81.2937 27.7324ZM72.3756 54.2692C74.2607 56.1544 76.6534 57.0969 79.5536 57.0969C82.4538 57.0969 84.8465 56.1544 86.7316 54.2692C88.6651 52.3358 89.6318 49.8706 89.6318 46.8737C89.6318 43.8768 88.6651 41.4358 86.7316 39.5507C84.8465 37.6172 82.4538 36.6505 79.5536 36.6505C76.6534 36.6505 74.2607 37.6172 72.3756 39.5507C70.4905 41.4358 69.5479 43.8768 69.5479 46.8737C69.5479 49.8706 70.4905 52.3358 72.3756 54.2692ZM142.051 27.7324C146.208 27.7324 149.519 29.0858 151.985 31.7927C154.498 34.4995 155.755 38.1248 155.755 42.6684V65H146.402V43.321C146.402 41.1458 145.87 39.454 144.806 38.2456C143.743 37.0372 142.245 36.433 140.311 36.433C138.184 36.433 136.517 37.1339 135.308 38.5356C134.148 39.9374 133.568 41.9675 133.568 44.6261V65H124.215V43.321C124.215 41.1458 123.683 39.454 122.62 38.2456C121.557 37.0372 120.058 36.433 118.125 36.433C116.046 36.433 114.379 37.158 113.122 38.6081C111.913 40.0099 111.309 42.0159 111.309 44.6261V65H101.956V28.7475H111.309V32.5902C113.484 29.3517 116.844 27.7324 121.387 27.7324C125.883 27.7324 129.17 29.4725 131.248 32.9527C133.617 29.4725 137.218 27.7324 142.051 27.7324ZM164.714 24.3971C163.167 24.3971 161.813 23.8413 160.653 22.7295C159.542 21.5694 158.986 20.216 158.986 18.6692C158.986 17.1225 159.542 15.769 160.653 14.609C161.813 13.4489 163.167 12.8688 164.714 12.8688C166.309 12.8688 167.662 13.4489 168.774 14.609C169.934 15.769 170.514 17.1225 170.514 18.6692C170.514 20.216 169.934 21.5694 168.774 22.7295C167.662 23.8413 166.309 24.3971 164.714 24.3971ZM169.427 65H160.073V28.7475H169.427V65Z" fill="black"/>
<rect x="4.44531" y="28.4531" width="5.07536" height="17.0387" rx="2.53768" fill="black"/>
<rect x="167.219" y="28.4531" width="5.07536" height="17.0387" rx="2.53768" fill="black"/>
</svg>
