<svg width="369" height="274" viewBox="0 0 369 274" fill="none" xmlns="http://www.w3.org/2000/svg">
<path fill-rule="evenodd" clip-rule="evenodd" d="M0 1.59222L0.268753 0.160834H72.8062V0L148.216 14.1588L148.263 14.1676L148.31 14.1771C157.259 15.9758 169.307 22.1547 178.204 34.5936C187.231 47.2129 192.602 65.6774 189.082 91.2848C186.924 106.978 184.015 123.555 181.19 139.652L181.19 139.652L181.189 139.654C179.671 148.303 178.178 156.814 176.838 164.974C172.968 188.548 170.396 209.137 171.466 223.774C172.846 230.953 176.199 240.18 181.827 247.265C187.382 254.258 194.803 258.843 205.014 258.133C215.988 257.369 223.015 251.839 227.094 245.282C231.42 238.326 232.097 230.795 230.935 226.898L230.897 226.77L230.863 226.641L198.276 101.352L198.27 101.33L198.265 101.309C195.488 90.3664 197.847 75.9312 203.457 64.2182C209.013 52.6202 219.115 41.065 233.798 40.0266C247.698 39.0436 261.32 40.413 271.421 48.6208C281.767 57.0272 286.467 70.9412 286.467 90.2633C286.467 111.889 282.688 138.821 279.184 161.914C278.725 164.941 278.271 167.898 277.83 170.773L277.828 170.784L277.827 170.788L277.826 170.798C276.566 179.002 275.411 186.531 274.536 193.053C273.322 202.117 272.794 208.312 273.05 211.419C273.704 219.348 276.946 227.21 282.579 232.476C287.967 237.515 296.207 240.819 308.518 238.736C318.826 236.993 323.963 229.535 326.624 220.022C329.023 211.447 328.901 202.789 328.844 198.728L328.844 198.722C328.836 198.214 328.83 197.777 328.83 197.422C328.83 194.087 327.645 187.146 325.333 177.136C323.087 167.412 319.966 155.546 316.485 142.81C314.015 133.774 311.358 124.285 308.718 114.856L308.716 114.848L308.713 114.838L308.713 114.837L308.713 114.836C303.959 97.8554 299.26 81.0718 295.805 67.4871L295.743 67.2455L295.698 67.0003C293.852 57.0022 293.846 44.5702 297.1 33.5059C300.355 22.435 307.306 11.5504 320.17 7.36267C332.536 3.33685 344.286 7.0375 352.733 11.0846C356.026 12.6625 359 14.383 361.481 15.8902H360.367V32.7637C360.078 32.604 359.809 32.4502 359.568 32.3104C358.566 31.7288 357.418 31.0148 356.275 30.3033L356.273 30.3017C356.078 30.1803 355.883 30.0589 355.688 29.9383C352.908 28.2111 349.751 26.2887 346.251 24.612C339.109 21.1896 331.732 19.3737 324.813 21.6259C318.393 23.7161 313.96 29.3384 311.491 37.7375C309.043 46.0613 308.948 55.9497 310.405 64.0385C313.814 77.4225 318.391 93.7692 323.078 110.506L323.078 110.507C325.732 119.987 328.422 129.592 330.954 138.855C334.447 151.634 337.632 163.734 339.948 173.761C342.198 183.502 343.83 192.098 343.83 197.422C343.83 197.66 343.836 197.995 343.844 198.416C343.914 202.233 344.115 213.177 341.07 224.063C337.649 236.292 329.506 250.399 311.02 253.526C294.538 256.314 281.456 251.963 272.334 243.433C263.455 235.13 258.996 223.508 258.101 212.652C257.687 207.64 258.499 199.797 259.669 191.061C260.565 184.381 261.754 176.637 263.021 168.379C263.459 165.528 263.906 162.615 264.354 159.664C267.881 136.417 271.467 110.581 271.467 90.2633C271.467 72.9619 267.24 64.551 261.962 60.2622C256.439 55.7746 247.741 54.078 234.856 54.9893C228.112 55.4662 221.586 61.0944 216.986 70.6982C212.445 80.1774 211.12 90.9502 212.799 97.5987L212.804 97.6189L245.35 222.749C247.919 231.557 245.907 243.434 239.831 253.204C233.475 263.424 222.311 271.966 206.055 273.096C189.764 274.23 177.915 266.457 170.082 256.595C162.421 246.951 158.286 235.028 156.643 226.113L156.572 225.728L156.542 225.338C155.233 208.609 158.162 186.141 162.036 162.544C163.434 154.028 164.958 145.348 166.49 136.624C169.281 120.731 172.097 104.694 174.222 89.2419C177.308 66.79 172.449 52.3312 166.004 43.3201C159.447 34.1532 150.811 29.9927 145.397 28.8916L0 1.59222ZM363.277 34.1002C363.428 34.1524 363.58 34.2016 363.733 34.2472L363.777 34.1002H363.277ZM367.233 22.5282L368.026 19.8746C368.081 19.891 368.12 19.9039 368.14 19.9102C368.151 19.9137 368.157 19.9152 368.158 19.9145C368.158 19.9131 368.14 19.9042 368.102 19.885L368.101 19.8847L368.101 19.8845C367.992 19.83 367.72 19.6938 367.233 19.4152V22.5282Z" fill="#04192F" fill-opacity="0.08"/>
</svg>
