<svg width="1862" height="651" viewBox="0 0 1862 651" fill="none" xmlns="http://www.w3.org/2000/svg">
<path d="M10 628.399C10 585.41 77.4533 513.469 104.012 475.068C136.572 427.989 201.605 410.435 261.108 397.534C527.544 401.575 567.69 369.455 640.595 284.896C659.698 262.739 678.97 192.486 625.556 146.748C586.662 129.013 520.802 112.678 439.904 142.547C402.077 159.924 387.431 187.807 386.432 221.722C385.098 267.011 453.44 352.291 504.001 374.611C589.146 412.2 681.92 366.063 770.329 380.679C846.359 393.249 864.647 482.742 876.979 535.072C879.556 546.006 887.894 555.237 891.875 565.748C896.849 578.881 894.687 569.592 900.404 562.125C909.142 550.71 906.277 546.513 911.139 540.466C924.512 523.834 925.935 531.969 949.47 490.574C973.005 449.18 975.553 426.112 1018.12 410.442C1082.9 386.599 1058.4 400.091 1124.43 378.825C1177.64 361.688 1376.33 324.469 1410.23 284.942C1462.78 223.675 1482.63 144.336 1492.65 70.2077C1496.53 41.5436 1480.46 23.6305 1448.17 13.5745C1399.91 -1.45251 1385.87 33.636 1381.04 67.848C1373.29 122.643 1364.65 202.129 1398.51 252.243C1428.02 295.906 1495.54 328.686 1548.26 348.654C1585.77 362.86 1627.18 366.184 1665.04 378.825C1708.12 393.21 1738.79 425.854 1753.62 462.089C1776.48 517.948 1821.92 583.127 1852 641" stroke="#04192F" stroke-opacity="0.03" stroke-width="20" stroke-linecap="round"/>
</svg>
