<svg width="1553" height="411" viewBox="0 0 1553 411" fill="none" xmlns="http://www.w3.org/2000/svg">
<path d="M5 396.167C5 379.68 19.0986 352.089 24.6496 337.362C31.4551 319.306 45.0477 312.574 57.4845 307.626C113.173 309.176 121.564 296.858 136.802 264.428C140.795 255.93 144.823 228.987 133.659 211.445C125.529 204.643 111.764 198.379 94.855 209.834C86.9487 216.499 83.8876 227.192 83.6788 240.199C83.3999 257.569 97.6843 290.275 108.252 298.835C126.048 313.251 145.439 295.557 163.918 301.162C179.809 305.983 183.631 340.305 186.209 360.375C186.748 364.568 188.49 368.108 189.322 372.14C190.362 377.176 189.91 373.614 191.105 370.75C192.931 366.372 192.333 364.763 193.349 362.443C196.144 356.065 196.441 359.185 201.36 343.309C206.28 327.433 206.812 318.587 215.709 312.577C229.248 303.433 224.128 308.607 237.929 300.451C249.051 293.879 290.579 279.605 297.665 264.445C308.649 240.948 312.797 210.52 314.892 182.091C315.702 171.098 312.344 164.228 305.594 160.371C295.507 154.608 292.574 168.065 291.563 181.186C289.944 202.201 288.137 232.685 295.216 251.905C301.383 268.65 315.495 281.222 326.515 288.88C334.355 294.328 343.01 295.603 350.923 300.451C359.928 305.968 366.337 318.487 369.437 332.384C374.216 353.807 383.713 378.805 390 401" stroke="#04192F" stroke-opacity="0.12" stroke-width="10" stroke-linecap="round"/>
<path d="M390 401.167C390 384.68 404.099 357.089 409.65 342.362C416.455 324.306 430.048 317.574 442.485 312.626C498.173 314.176 506.564 301.858 521.802 269.428C525.795 260.93 529.823 233.987 518.659 216.445C510.529 209.643 496.764 203.379 479.855 214.834C471.949 221.499 468.888 232.192 468.679 245.199C468.4 262.569 482.684 295.275 493.252 303.835C511.048 318.251 530.439 300.557 548.918 306.162C564.809 310.983 568.631 345.305 571.209 365.375C571.748 369.568 573.49 373.108 574.322 377.14C575.362 382.176 574.91 378.614 576.105 375.75C577.931 371.372 577.333 369.763 578.349 367.443C581.144 361.065 581.441 364.185 586.36 348.309C591.28 332.433 591.812 323.587 600.709 317.577C614.248 308.433 609.128 313.607 622.929 305.451C634.051 298.879 675.579 284.605 682.665 269.445C693.649 245.948 697.797 215.52 699.892 187.091C700.702 176.098 697.344 169.228 690.594 165.371C680.507 159.608 677.574 173.065 676.563 186.186C674.944 207.201 673.137 237.685 680.216 256.905C686.383 273.65 700.495 286.222 711.515 293.88C719.355 299.328 728.01 300.603 735.923 305.451C744.928 310.968 751.337 323.487 754.437 337.384C759.216 358.807 768.713 383.805 775 406" stroke="#04192F" stroke-opacity="0.12" stroke-width="10" stroke-linecap="round"/>
<path d="M1163 401.167C1163 384.68 1177.1 357.089 1182.65 342.362C1189.46 324.306 1203.05 317.574 1215.48 312.626C1271.17 314.176 1279.56 301.858 1294.8 269.428C1298.79 260.93 1302.82 233.987 1291.66 216.445C1283.53 209.643 1269.76 203.379 1252.86 214.834C1244.95 221.499 1241.89 232.192 1241.68 245.199C1241.4 262.569 1255.68 295.275 1266.25 303.835C1284.05 318.251 1303.44 300.557 1321.92 306.162C1337.81 310.983 1341.63 345.305 1344.21 365.375C1344.75 369.568 1346.49 373.108 1347.32 377.14C1348.36 382.176 1347.91 378.614 1349.11 375.75C1350.93 371.372 1350.33 369.763 1351.35 367.443C1354.14 361.065 1354.44 364.185 1359.36 348.309C1364.28 332.433 1364.81 323.587 1373.71 317.577C1387.25 308.433 1382.13 313.607 1395.93 305.451C1407.05 298.879 1448.58 284.605 1455.67 269.445C1466.65 245.948 1470.8 215.52 1472.89 187.091C1473.7 176.098 1470.34 169.228 1463.59 165.371C1453.51 159.608 1450.57 173.065 1449.56 186.186C1447.94 207.201 1446.14 237.685 1453.22 256.905C1459.38 273.65 1473.49 286.222 1484.52 293.88C1492.36 299.328 1501.01 300.603 1508.92 305.451C1517.93 310.968 1524.34 323.487 1527.44 337.384C1532.22 358.807 1541.71 383.805 1548 406" stroke="#04192F" stroke-opacity="0.12" stroke-width="10" stroke-linecap="round"/>
<path d="M1161 401.167C1161 384.68 1146.86 357.089 1141.3 342.362C1134.48 324.306 1120.85 317.574 1108.38 312.626C1052.55 314.176 1044.13 301.858 1028.86 269.428C1024.85 260.93 1020.81 233.987 1032.01 216.445C1040.16 209.643 1053.96 203.379 1070.91 214.834C1078.84 221.499 1081.91 232.192 1082.12 245.199C1082.4 262.569 1068.07 295.275 1057.48 303.835C1039.64 318.251 1020.2 300.557 1001.67 306.162C985.737 310.983 981.905 345.305 979.32 365.375C978.78 369.568 977.033 373.108 976.199 377.14C975.157 382.176 975.61 378.614 974.412 375.75C972.58 371.372 973.181 369.763 972.162 367.443C969.36 361.065 969.061 364.185 964.13 348.309C959.198 332.433 958.664 323.587 949.743 317.577C936.17 308.433 941.303 313.607 927.466 305.451C916.315 298.879 874.679 284.605 867.575 269.445C856.562 245.948 852.403 215.52 850.303 187.091C849.491 176.098 852.858 169.228 859.626 165.371C869.738 159.608 872.679 173.065 873.693 186.186C875.316 207.201 877.127 237.685 870.03 256.905C863.847 273.65 849.699 286.222 838.65 293.88C830.789 299.328 822.112 300.603 814.178 305.451C805.151 310.968 798.724 323.487 795.616 337.384C790.825 358.807 781.303 383.805 775 406" stroke="#04192F" stroke-opacity="0.12" stroke-width="10" stroke-linecap="round"/>
<path d="M106.604 154.588C101.106 153.751 91.5874 151.249 85.489 150.794C80.9746 150.456 78.9827 154.29 85.9859 157.004C91.5886 159.175 93.3867 159.806 93.5855 159.85C84.3584 158.994 64.3259 161.646 58.0126 179.109C57.6657 179.717 57.098 183.556 57.235 183.212M57.235 183.212C57.94 180.473 55.1253 175.261 54.6844 171.331M57.235 183.212C59.792 176.807 64.1455 173.553 66.0026 172.727" stroke="#6500FF" stroke-width="3"/>
<path d="M523.045 122.305C517.877 124.358 508.397 127.003 502.903 129.688C498.835 131.675 499.051 135.99 506.467 134.798C512.399 133.844 514.27 133.481 514.464 133.419C506.066 137.337 490.112 149.738 493.476 168C493.484 168.7 494.932 172.3 494.877 171.935M494.877 171.935C494.103 169.214 489.042 166.136 486.678 162.966M494.877 171.935C493.851 165.115 495.966 160.108 497.152 158.457" stroke="#6500FF" stroke-width="3"/>
<path d="M727.604 103.588C722.106 102.751 712.587 100.249 706.489 99.7937C701.975 99.4564 699.983 103.29 706.986 106.004C712.589 108.175 714.387 108.806 714.586 108.85C705.358 107.994 685.326 110.646 679.013 128.109C678.666 128.717 678.098 132.556 678.235 132.212M678.235 132.212C678.94 129.473 676.125 124.261 675.684 120.331M678.235 132.212C680.792 125.807 685.146 122.553 687.003 121.727" stroke="#6500FF" stroke-width="3"/>
<path d="M1418.42 99.3267C1417.61 104.828 1415.15 114.357 1414.72 120.458C1414.41 124.974 1418.25 126.949 1420.93 119.933C1423.08 114.321 1423.7 112.52 1423.74 112.321C1422.93 121.552 1425.67 141.573 1443.16 147.809C1443.77 148.153 1447.61 148.704 1447.27 148.568M1447.27 148.568C1444.52 147.875 1439.32 150.713 1435.4 151.171M1447.27 148.568C1440.85 146.039 1437.58 141.7 1436.74 139.847" stroke="#6500FF" stroke-width="3"/>
<path d="M915.604 104.588C910.106 103.751 900.587 101.249 894.489 100.794C889.975 100.456 887.983 104.29 894.986 107.004C900.589 109.175 902.387 109.806 902.586 109.85C893.358 108.994 873.326 111.646 867.013 129.109C866.666 129.717 866.098 133.556 866.235 133.212M866.235 133.212C866.94 130.473 864.125 125.261 863.684 121.331M866.235 133.212C868.792 126.807 873.146 123.553 875.003 122.727" stroke="#6500FF" stroke-width="3"/>
<path d="M1047.92 120.359C1044.52 124.758 1037.7 131.862 1034.34 136.971C1031.86 140.753 1034.24 144.357 1040.01 139.554C1044.63 135.712 1046.06 134.447 1046.19 134.294C1040.96 141.943 1033.55 160.741 1045.74 174.743C1046.11 175.342 1049.19 177.703 1048.95 177.416M1048.95 177.416C1046.9 175.47 1040.98 175.398 1037.33 173.874M1048.95 177.416C1044.6 172.07 1043.87 166.684 1044.05 164.659" stroke="#6500FF" stroke-width="3"/>
<path d="M1215.19 134.002C1213.48 139.293 1209.48 148.285 1208.05 154.231C1206.99 158.632 1210.45 161.215 1214.26 154.74C1217.3 149.559 1218.21 147.886 1218.29 147.697C1215.96 156.666 1215.35 176.864 1231.57 185.905C1232.12 186.345 1235.81 187.523 1235.5 187.332M1235.5 187.332C1232.91 186.196 1227.31 188.135 1223.36 187.938M1235.5 187.332C1229.59 183.778 1227.08 178.958 1226.56 176.992" stroke="#6500FF" stroke-width="3"/>
<path d="M330.878 79.5939C326.756 83.3269 318.804 89.1253 314.598 93.5648C311.484 96.8513 313.198 100.817 319.726 97.1029C324.948 94.1315 326.574 93.1361 326.733 93.0098C320.24 99.6214 309.641 116.826 319.19 132.752C319.442 133.405 322.059 136.27 321.88 135.947M321.88 135.947C320.202 133.67 314.383 132.559 311.058 130.418M321.88 135.947C318.53 129.918 318.757 124.488 319.29 122.526" stroke="#6500FF" stroke-width="3"/>
<path d="M128.2 143.4C128.867 143.2 129.633 143.133 130.5 143.2C131.433 143.267 132.3 143.467 133.1 143.8C133.9 144.133 134.533 144.6 135 145.2C135.533 145.8 135.733 146.5 135.6 147.3C135.6 147.767 135.467 148.133 135.2 148.4C134.933 148.6 134.667 148.733 134.4 148.8C134.133 148.867 133.9 148.8 133.7 148.6C133.567 148.4 133.6 148.067 133.8 147.6C134.067 147 134.033 146.5 133.7 146.1C133.367 145.633 132.9 145.3 132.3 145.1C131.7 144.833 131.067 144.7 130.4 144.7C129.733 144.633 129.167 144.667 128.7 144.8C127.633 145.133 126.667 145.7 125.8 146.5C125 147.233 124.3 148.067 123.7 149C123.1 149.933 122.6 150.933 122.2 152C121.8 153.067 121.5 154.1 121.3 155.1C120.967 156.9 120.933 158.767 121.2 160.7C121.467 162.633 122.067 164.367 123 165.9C124.4 168.1 126.033 169.467 127.9 170C129.767 170.533 131.633 170.567 133.5 170.1C135.433 169.567 137.267 168.667 139 167.4C140.8 166.133 142.333 164.767 143.6 163.3C144.133 162.967 144.533 162.967 144.8 163.3C145.133 163.567 145.133 163.933 144.8 164.4C143.733 165.667 142.567 166.833 141.3 167.9C140.033 168.967 138.667 169.867 137.2 170.6C135.733 171.267 134.167 171.7 132.5 171.9C130.9 172.1 129.267 171.967 127.6 171.5C126 171.1 124.633 170.333 123.5 169.2C122.367 168 121.467 166.633 120.8 165.1C120.2 163.5 119.8 161.8 119.6 160C119.4 158.2 119.467 156.433 119.8 154.7C120 153.5 120.3 152.333 120.7 151.2C121.167 150 121.733 148.9 122.4 147.9C123.133 146.833 123.967 145.933 124.9 145.2C125.833 144.4 126.933 143.8 128.2 143.4ZM146.981 132.5C147.115 132.1 147.381 131.833 147.781 131.7C148.181 131.5 148.448 131.667 148.581 132.2C148.515 138.467 148.381 144.667 148.181 150.8C148.048 156.933 147.948 163.133 147.881 169.4C147.815 169.8 147.548 170.1 147.081 170.3C146.615 170.433 146.381 170.2 146.381 169.6C146.448 163.333 146.548 157.133 146.681 151C146.815 144.867 146.915 138.7 146.981 132.5ZM151.398 162.9C151.465 161.833 151.698 160.767 152.098 159.7C152.498 158.633 153.032 157.733 153.698 157C154.365 156.267 155.098 155.767 155.898 155.5C156.698 155.167 157.532 155.233 158.398 155.7C159.798 156.433 160.565 157.367 160.698 158.5C160.898 159.567 160.665 160.6 159.998 161.6C159.332 162.533 158.365 163.367 157.098 164.1C155.898 164.767 154.565 165.067 153.098 165C153.498 166.133 154.332 166.9 155.598 167.3C156.865 167.633 158.665 167.133 160.998 165.8C161.598 165.667 161.865 165.8 161.798 166.2C161.798 166.6 161.632 166.933 161.298 167.2C160.232 167.8 159.065 168.3 157.798 168.7C156.598 169.033 155.365 168.9 154.098 168.3C153.365 167.967 152.698 167.433 152.098 166.7C151.565 165.9 151.332 164.633 151.398 162.9ZM157.598 157.2C156.865 156.933 156.198 156.967 155.598 157.3C154.998 157.567 154.465 158.033 153.998 158.7C153.598 159.3 153.265 160.033 152.998 160.9C152.798 161.7 152.698 162.5 152.698 163.3C153.898 163.633 154.965 163.567 155.898 163.1C156.898 162.633 157.665 162.033 158.198 161.3C158.798 160.567 159.065 159.8 158.998 159C158.932 158.2 158.465 157.6 157.598 157.2ZM153.498 153.7C153.165 153.967 152.832 153.933 152.498 153.6C152.165 153.267 152.132 152.933 152.398 152.6C153.265 151.467 154.132 150.433 154.998 149.5C155.932 148.5 156.865 147.5 157.798 146.5C158.265 146.167 158.632 146.167 158.898 146.5C159.232 146.767 159.232 147.133 158.898 147.6C157.965 148.6 157.032 149.6 156.098 150.6C155.232 151.533 154.365 152.567 153.498 153.7ZM165.201 149.3C165.467 148.967 165.801 148.8 166.201 148.8C166.601 148.8 166.734 149.067 166.601 149.6C166.201 150.333 165.867 151.6 165.601 153.4C165.401 155.2 165.267 157.133 165.201 159.2C165.134 161.2 165.134 163.133 165.201 165C165.334 166.8 165.534 168.1 165.801 168.9C166.801 166.567 167.667 164.233 168.401 161.9C169.134 159.5 170.167 157.233 171.501 155.1C171.701 154.833 171.901 154.633 172.101 154.5C172.367 154.367 172.634 154.467 172.901 154.8C173.167 155.933 173.401 157.333 173.601 159C173.801 160.6 174.101 162.233 174.501 163.9C174.901 165.5 175.467 166.933 176.201 168.2C177.001 169.467 178.101 170.3 179.501 170.7C180.701 171.033 181.667 170.633 182.401 169.5C183.134 168.367 183.701 167 184.101 165.4C184.501 163.8 184.767 162.2 184.901 160.6C185.034 159 185.101 157.867 185.101 157.2C185.101 156.8 185.301 156.5 185.701 156.3C186.167 156.1 186.501 156.267 186.701 156.8C186.767 158.133 186.967 159.567 187.301 161.1C187.634 162.633 188.167 164 188.901 165.2C189.634 166.4 190.567 167.333 191.701 168C192.901 168.6 194.367 168.7 196.101 168.3C196.701 168.167 196.967 168.367 196.901 168.9C196.901 169.367 196.634 169.667 196.101 169.8C194.767 170.133 193.567 170.2 192.501 170C191.434 169.8 190.501 169.4 189.701 168.8C188.901 168.2 188.234 167.433 187.701 166.5C187.167 165.567 186.701 164.567 186.301 163.5C186.234 164.367 186.034 165.3 185.701 166.3C185.367 167.3 184.934 168.233 184.401 169.1C183.867 169.967 183.167 170.7 182.301 171.3C181.501 171.833 180.567 172.1 179.501 172.1C178.034 172.1 176.834 171.533 175.901 170.4C175.034 169.267 174.301 167.933 173.701 166.4C173.167 164.867 172.734 163.267 172.401 161.6C172.134 159.933 171.901 158.533 171.701 157.4C171.167 158.533 170.701 159.7 170.301 160.9C169.967 162.1 169.601 163.3 169.201 164.5C168.801 165.7 168.334 166.867 167.801 168C167.334 169.067 166.701 170.067 165.901 171C165.301 171.467 164.901 171.4 164.701 170.8C164.367 169.867 164.101 168.4 163.901 166.4C163.701 164.4 163.601 162.3 163.601 160.1C163.667 157.833 163.801 155.7 164.001 153.7C164.267 151.7 164.667 150.233 165.201 149.3ZM194.32 162.9C194.387 161.833 194.62 160.767 195.02 159.7C195.42 158.633 195.954 157.733 196.62 157C197.287 156.267 198.02 155.767 198.82 155.5C199.62 155.167 200.454 155.233 201.32 155.7C202.72 156.433 203.487 157.367 203.62 158.5C203.82 159.567 203.587 160.6 202.92 161.6C202.254 162.533 201.287 163.367 200.02 164.1C198.82 164.767 197.487 165.067 196.02 165C196.42 166.133 197.254 166.9 198.52 167.3C199.787 167.633 201.587 167.133 203.92 165.8C204.52 165.667 204.787 165.8 204.72 166.2C204.72 166.6 204.554 166.933 204.22 167.2C203.154 167.8 201.987 168.3 200.72 168.7C199.52 169.033 198.287 168.9 197.02 168.3C196.287 167.967 195.62 167.433 195.02 166.7C194.487 165.9 194.254 164.633 194.32 162.9ZM200.52 157.2C199.787 156.933 199.12 156.967 198.52 157.3C197.92 157.567 197.387 158.033 196.92 158.7C196.52 159.3 196.187 160.033 195.92 160.9C195.72 161.7 195.62 162.5 195.62 163.3C196.82 163.633 197.887 163.567 198.82 163.1C199.82 162.633 200.587 162.033 201.12 161.3C201.72 160.567 201.987 159.8 201.92 159C201.854 158.2 201.387 157.6 200.52 157.2ZM207.72 155.4C207.854 155 208.087 154.733 208.42 154.6C208.82 154.4 209.087 154.567 209.22 155.1C209.087 157.233 208.887 159.4 208.62 161.6C208.42 163.8 208.32 166 208.32 168.2C208.92 167.133 209.487 166 210.02 164.8C210.554 163.533 211.087 162.4 211.62 161.4C212.22 160.333 212.787 159.433 213.32 158.7C213.92 157.967 214.587 157.567 215.32 157.5C216.054 157.433 216.854 157.8 217.72 158.6C218.587 159.4 219.587 160.8 220.72 162.8C221.254 163.667 221.754 164.533 222.22 165.4C222.754 166.2 223.354 166.967 224.02 167.7C224.354 168.1 224.287 168.5 223.82 168.9C223.42 169.233 223.054 169.233 222.72 168.9C222.187 168.3 221.62 167.467 221.02 166.4C220.42 165.267 219.787 164.2 219.12 163.2C218.52 162.133 217.854 161.2 217.12 160.4C216.387 159.6 215.62 159.2 214.82 159.2C214.02 159.867 213.354 160.667 212.82 161.6C212.354 162.467 211.92 163.4 211.52 164.4C211.12 165.333 210.687 166.3 210.22 167.3C209.82 168.233 209.287 169.1 208.62 169.9C208.354 170.167 208.02 170.3 207.62 170.3C207.287 170.3 207.054 170.1 206.92 169.7C206.587 167.367 206.587 164.967 206.92 162.5C207.254 160.033 207.52 157.667 207.72 155.4ZM220.652 158C220.052 158 219.819 157.767 219.952 157.3C220.152 156.833 220.452 156.533 220.852 156.4C222.186 156.4 223.486 156.367 224.752 156.3C226.019 156.167 227.319 156.033 228.652 155.9C228.786 152.5 228.886 149.1 228.952 145.7C229.086 142.233 229.219 138.767 229.352 135.3C229.486 134.9 229.752 134.633 230.152 134.5C230.552 134.367 230.819 134.567 230.952 135.1C230.819 138.567 230.652 142 230.452 145.4C230.319 148.8 230.252 152.2 230.252 155.6C231.586 155.467 232.852 155.333 234.052 155.2C235.319 155 236.619 154.833 237.952 154.7C238.486 154.767 238.686 155 238.552 155.4C238.419 155.8 238.152 156.067 237.752 156.2C236.486 156.333 235.219 156.5 233.952 156.7C232.752 156.9 231.519 157.067 230.252 157.2C230.186 157.667 230.119 158.5 230.052 159.7C230.052 160.9 230.052 162.267 230.052 163.8C230.052 165.267 230.119 166.833 230.252 168.5C230.386 170.1 230.586 171.533 230.852 172.8C230.786 173.2 230.552 173.5 230.152 173.7C229.752 173.967 229.452 173.833 229.252 173.3C228.986 171.967 228.786 170.5 228.652 168.9C228.519 167.233 228.452 165.633 228.452 164.1C228.452 162.567 228.452 161.2 228.452 160C228.519 158.733 228.586 157.867 228.652 157.4C227.319 157.533 225.986 157.667 224.652 157.8C223.319 157.933 221.986 158 220.652 158Z" fill="#6500FF"/>
<path d="M504.7 66.9C504.833 66.3667 505.1 66.1333 505.5 66.2C505.967 66.2667 506.2 66.5667 506.2 67.1C506.2 67.5 506.167 68.4 506.1 69.8C506.1 71.1333 506.1 72.6 506.1 74.2C506.1 75.8 506.067 77.3 506 78.7C506 80.1 506 81 506 81.4C506.067 83.4667 506.167 85.6333 506.3 87.9C506.5 90.1667 507 92.1333 507.8 93.8C508.6 95.4667 509.833 96.6333 511.5 97.3C513.167 97.9667 515.467 97.7333 518.4 96.6C519.933 96 521.333 95.3 522.6 94.5C523.933 93.7 525.267 92.9333 526.6 92.2C527.133 92.2 527.433 92.4 527.5 92.8C527.633 93.1333 527.5 93.4333 527.1 93.7C525.767 94.4333 524.433 95.2 523.1 96C521.767 96.8 520.4 97.4667 519 98C515.867 99.2667 513.333 99.6 511.4 99C509.467 98.3333 507.967 97.1 506.9 95.3C505.833 93.5 505.1 91.3 504.7 88.7C504.367 86.1 504.167 83.4333 504.1 80.7C504.1 77.9667 504.167 75.3667 504.3 72.9C504.5 70.4333 504.633 68.4333 504.7 66.9ZM525.498 82.9C525.498 82.4333 525.698 82.1 526.098 81.9C526.565 81.7 526.865 81.8667 526.998 82.4C526.998 82.8 526.998 83.6 526.998 84.8C527.065 86 527.165 87.2333 527.298 88.5C527.432 89.7 527.632 90.8333 527.898 91.9C528.165 92.9 528.565 93.4333 529.098 93.5C529.498 93.5 529.898 93.2667 530.298 92.8C530.765 92.2667 531.198 91.6333 531.598 90.9C531.998 90.1 532.365 89.3 532.698 88.5C533.098 87.6333 533.398 86.8667 533.598 86.2C533.598 85.0667 533.598 84.0333 533.598 83.1C533.665 82.1 533.732 81.2667 533.798 80.6C533.932 79.8667 534.332 79.6 534.998 79.8C535.598 80.2667 535.865 81.0667 535.798 82.2C535.798 83.3333 535.598 84.5667 535.198 85.9C535.198 87.8333 535.265 89.7333 535.398 91.6C535.598 93.4 535.865 94.6333 536.198 95.3C536.265 95.7 536.132 96.0333 535.798 96.3C535.465 96.5667 535.132 96.5333 534.798 96.2C534.465 95.5333 534.198 94.6333 533.998 93.5C533.865 92.3667 533.765 91.1333 533.698 89.8C533.032 91.0667 532.298 92.2 531.498 93.2C530.698 94.1333 529.932 94.7333 529.198 95C528.465 95.2 527.765 94.9333 527.098 94.2C526.498 93.4 526.065 91.9 525.798 89.7C525.665 88.5667 525.565 87.4333 525.498 86.3C525.498 85.1667 525.498 84.0333 525.498 82.9ZM548.675 86.8C548.608 87.2 548.375 87.5333 547.975 87.8C547.575 88 547.275 87.8333 547.075 87.3C547.008 86.9 546.942 86.3333 546.875 85.6C546.875 84.8 546.775 84.0333 546.575 83.3C546.442 82.5 546.175 81.8 545.775 81.2C545.442 80.6 544.975 80.2667 544.375 80.2C543.642 80.1333 542.908 80.5667 542.175 81.5C541.442 82.3667 540.775 83.4667 540.175 84.8C539.642 86.0667 539.208 87.4667 538.875 89C538.608 90.4667 538.608 91.8333 538.875 93.1C539.142 94.3 539.708 95.2333 540.575 95.9C541.508 96.5667 542.842 96.7 544.575 96.3C546.042 95.9667 547.675 95.4 549.475 94.6C551.342 93.8 552.975 92.9667 554.375 92.1C554.908 91.7667 555.208 91.8333 555.275 92.3C555.408 92.7 555.275 93.0667 554.875 93.4C552.475 95 549.908 96.3333 547.175 97.4C544.575 98.2667 542.508 98.4 540.975 97.8C539.508 97.2 538.442 96.1667 537.775 94.7C537.175 93.2333 536.942 91.5667 537.075 89.7C537.275 87.7667 537.708 85.9667 538.375 84.3C539.108 82.5667 540.042 81.1667 541.175 80.1C542.308 78.9667 543.575 78.5 544.975 78.7C545.775 78.7667 546.375 79.1333 546.775 79.8C547.242 80.4 547.608 81.1333 547.875 82C548.142 82.8 548.308 83.6667 548.375 84.6C548.508 85.4667 548.608 86.2 548.675 86.8ZM557.525 80.8C557.658 80.4667 557.925 80.2333 558.325 80.1C558.725 79.9 558.958 80.0667 559.025 80.6C558.958 83.1333 558.858 85.6333 558.725 88.1C558.592 90.5 558.492 92.9667 558.425 95.5C558.292 95.9667 557.992 96.3 557.525 96.5C557.125 96.6333 556.925 96.4 556.925 95.8C556.992 93.2667 557.092 90.7667 557.225 88.3C557.358 85.8333 557.458 83.3333 557.525 80.8ZM558.925 70.5C559.192 70.8333 559.125 71.2 558.725 71.6C558.392 72 558.058 72.0667 557.725 71.8C557.325 71.5333 557.325 71.2 557.725 70.8C558.125 70.3333 558.525 70.2333 558.925 70.5ZM561.938 88.9C562.004 87.8333 562.238 86.7667 562.638 85.7C563.038 84.6333 563.571 83.7333 564.237 83C564.904 82.2667 565.638 81.7667 566.438 81.5C567.238 81.1667 568.071 81.2333 568.938 81.7C570.338 82.4333 571.104 83.3667 571.238 84.5C571.438 85.5667 571.204 86.6 570.538 87.6C569.871 88.5333 568.904 89.3667 567.638 90.1C566.438 90.7667 565.104 91.0667 563.638 91C564.038 92.1333 564.871 92.9 566.138 93.3C567.404 93.6333 569.204 93.1333 571.538 91.8C572.138 91.6667 572.404 91.8 572.338 92.2C572.338 92.6 572.171 92.9333 571.838 93.2C570.771 93.8 569.604 94.3 568.338 94.7C567.138 95.0333 565.904 94.9 564.638 94.3C563.904 93.9667 563.238 93.4333 562.638 92.7C562.104 91.9 561.871 90.6333 561.938 88.9ZM568.138 83.2C567.404 82.9333 566.738 82.9667 566.138 83.3C565.538 83.5667 565.004 84.0333 564.538 84.7C564.138 85.3 563.804 86.0333 563.538 86.9C563.338 87.7 563.238 88.5 563.238 89.3C564.438 89.6333 565.504 89.5667 566.438 89.1C567.438 88.6333 568.204 88.0333 568.738 87.3C569.338 86.5667 569.604 85.8 569.538 85C569.471 84.2 569.004 83.6 568.138 83.2Z" fill="#6500FF"/>
<path d="M689.1 86.9C688.833 87.4333 688.533 87.6333 688.2 87.5C687.933 87.3667 687.7 87.1333 687.5 86.8C687.367 86.4667 687.3 86.1333 687.3 85.8C687.367 85.4667 687.633 85.3333 688.1 85.4C689.967 82.4667 691.333 79.3 692.2 75.9C693.067 72.5 693.867 69.1333 694.6 65.8V65.7C694.8 64.3 694.967 62.9 695.1 61.5C695.3 60.0333 695.467 58.6 695.6 57.2C695.6 56.6667 695.6 56.1667 695.6 55.7C695.6 55.1667 695.667 54.6667 695.8 54.2V53.6L695.9 53.7V53.6C696.167 53.2 696.467 53.0667 696.8 53.2C697.2 53.3333 697.4 53.6333 697.4 54.1C697.4 54.8333 697.367 55.5333 697.3 56.2C697.3 56.8 697.267 57.4667 697.2 58.2C697.267 59.7333 697.433 61.4333 697.7 63.3C697.967 65.1 698.267 66.9 698.6 68.7C699 70.4333 699.433 72.0667 699.9 73.6C700.367 75.1333 700.8 76.3667 701.2 77.3C701.4 77.7 701.633 78.2 701.9 78.8C702.167 79.4 702.5 80 702.9 80.6C703.3 81.1333 703.733 81.5667 704.2 81.9C704.733 82.2333 705.3 82.3 705.9 82.1C707.033 81.8333 707.967 81.2 708.7 80.2C709.5 79.1333 710.1 77.8667 710.5 76.4C710.967 74.9333 711.3 73.3333 711.5 71.6C711.767 69.8 711.9 68.0333 711.9 66.3C711.633 64.6333 711.433 62.9333 711.3 61.2C711.233 59.4667 711.2 57.7333 711.2 56C711.333 55.4667 711.567 55.2 711.9 55.2C712.3 55.2 712.567 55.4 712.7 55.8H712.8V55.9C713.133 57.8333 713.4 59.9333 713.6 62.2C713.8 64.4 713.8 66.6333 713.6 68.9C713.933 71.1667 714.4 73.3 715 75.3C715.667 77.3 716.533 78.8667 717.6 80C717.733 80.1333 717.933 80.2667 718.2 80.4C718.467 80.5333 718.8 80.6333 719.2 80.7C719.6 80.7 720.033 80.6 720.5 80.4C721.033 80.2 721.6 79.8 722.2 79.2C722.667 79.2 722.933 79.4 723 79.8C723.067 80.1333 722.933 80.4667 722.6 80.8C722.067 81.2667 721.533 81.6667 721 82C720.533 82.2667 720 82.4 719.4 82.4C718.067 82.4 717 81.8667 716.2 80.8C715.4 79.6667 714.833 78.6 714.5 77.6C714.233 76.7333 713.967 75.9 713.7 75.1C713.5 74.3 713.3 73.4667 713.1 72.6C712.833 74.1333 712.367 75.7333 711.7 77.4C710.7 80 709.567 81.7667 708.3 82.7C707.1 83.6333 705.9 83.9333 704.7 83.6C703.5 83.2667 702.367 82.3667 701.3 80.9C700.3 79.4333 699.467 77.6 698.8 75.4C698.267 73.5333 697.8 71.6667 697.4 69.8C697.067 67.9333 696.767 66.2333 696.5 64.7C695.967 68.6333 695.1 72.5 693.9 76.3C692.7 80.0333 691.1 83.5667 689.1 86.9ZM721.48 74.5C721.88 73.3667 722.446 72.2 723.18 71C723.98 69.7333 724.78 68.8333 725.58 68.3C725.446 67.9667 725.613 67.5667 726.08 67.1C726.613 66.6333 727.013 66.6 727.28 67C728.013 67.7333 728.58 68.5333 728.98 69.4C729.446 70.2667 729.846 71.2 730.18 72.2C730.713 74.0667 730.846 75.6667 730.58 77C730.38 78.2667 729.913 79.2667 729.18 80C728.513 80.7333 727.68 81.1667 726.68 81.3C725.68 81.4333 724.68 81.3 723.68 80.9C722.68 80.5667 721.913 79.8667 721.38 78.8C720.913 77.6667 720.946 76.2333 721.48 74.5ZM723.98 79.2C725.646 80 726.88 80.1 727.68 79.5C728.546 78.8333 729.046 77.8667 729.18 76.6C729.313 75.3333 729.18 74 728.78 72.6C728.38 71.2 727.813 70.1333 727.08 69.4C726.346 69.6 725.613 70.1667 724.88 71.1C724.146 71.9667 723.546 72.9333 723.08 74C722.68 75.0667 722.513 76.1 722.58 77.1C722.646 78.1 723.113 78.8 723.98 79.2ZM731.996 50.4C731.996 49.9333 732.229 49.6 732.696 49.4C733.163 49.2 733.463 49.3667 733.596 49.9C733.596 54.5667 733.729 59.2 733.996 63.8C734.329 68.4 734.763 73.0333 735.296 77.7V77.5C735.296 77.3 735.296 77.4 735.296 77.8C735.363 78.1333 735.429 78.4 735.496 78.6C735.829 77.2 736.196 75.8667 736.596 74.6C736.996 73.2667 737.563 71.9667 738.296 70.7C738.896 69.5 739.529 68.8 740.196 68.6C740.863 68.3333 741.496 68.4 742.096 68.8C742.696 69.1333 743.296 69.6667 743.896 70.4C744.563 71.1333 745.196 71.9333 745.796 72.8C746.396 73.6 746.963 74.3333 747.496 75C748.096 75.6667 748.663 76.1 749.196 76.3C749.596 76.5667 749.663 76.8667 749.396 77.2C749.196 77.5333 748.896 77.7 748.496 77.7C747.763 77.4333 746.996 76.9 746.196 76.1C745.396 75.2333 744.629 74.3333 743.896 73.4C743.229 72.4667 742.596 71.6333 741.996 70.9C741.463 70.1667 741.096 69.8 740.896 69.8C739.363 71.3333 738.363 73.1333 737.896 75.2C737.429 77.2 736.896 79.2333 736.296 81.3C736.096 81.7 735.763 81.9 735.296 81.9C734.896 81.9 734.563 81.7333 734.296 81.4C733.429 76.2667 732.829 71.1333 732.496 66C732.163 60.8 731.996 55.6 731.996 50.4ZM763.33 70C763.463 70.3333 763.33 70.6667 762.93 71C762.596 71.3333 762.263 71.3333 761.93 71C762.196 72.2667 762.53 73.6 762.93 75C763.33 76.4 763.73 77.7667 764.13 79.1C764.53 80.3667 764.963 81.5333 765.43 82.6C765.896 83.6 766.33 84.3667 766.73 84.9C766.863 85.3 766.73 85.6333 766.33 85.9C765.996 86.2333 765.663 86.2333 765.33 85.9C764.196 84.2333 763.43 82.5 763.03 80.7C762.63 78.9 762.196 77.0333 761.73 75.1L761.23 73.4C760.896 75.2 760.263 76.8 759.33 78.2C758.73 79 757.963 79.7667 757.03 80.5C756.163 81.2333 755.263 81.7333 754.33 82C753.463 82.2 752.663 82.0667 751.93 81.6C751.196 81.1333 750.696 80.1333 750.43 78.6C750.23 77.2 750.363 75.8 750.83 74.4C751.296 72.9333 751.963 71.6333 752.83 70.5C753.763 69.3 754.796 68.3333 755.93 67.6C757.13 66.8 758.263 66.3333 759.33 66.2V65.8C759.463 65.4667 759.663 65.2333 759.93 65.1C760.263 64.9667 760.563 65.0667 760.83 65.4L761.03 66.6C762.163 67.0667 762.93 68.2 763.33 70ZM758.13 77.6C759.063 76.1333 759.596 74.5667 759.73 72.9C759.863 71.2333 759.83 69.5667 759.63 67.9C758.83 67.7667 757.93 68 756.93 68.6C755.93 69.1333 755.03 69.9 754.23 70.9C753.43 71.9 752.796 73.0333 752.33 74.3C751.863 75.5 751.73 76.6333 751.93 77.7C752.13 78.8333 752.463 79.6 752.93 80C753.396 80.3333 753.93 80.4667 754.53 80.4C755.13 80.2667 755.73 79.9667 756.33 79.5C756.996 78.9667 757.596 78.3333 758.13 77.6ZM769.701 61.3C769.967 60.9667 770.301 60.8 770.701 60.8C771.101 60.8 771.234 61.0667 771.101 61.6C770.701 62.3333 770.367 63.6 770.101 65.4C769.901 67.2 769.767 69.1333 769.701 71.2C769.634 73.2 769.634 75.1333 769.701 77C769.834 78.8 770.034 80.1 770.301 80.9C771.301 78.5667 772.167 76.2333 772.901 73.9C773.634 71.5 774.667 69.2333 776.001 67.1C776.201 66.8333 776.401 66.6333 776.601 66.5C776.867 66.3667 777.134 66.4667 777.401 66.8C777.667 67.9333 777.901 69.3333 778.101 71C778.301 72.6 778.601 74.2333 779.001 75.9C779.401 77.5 779.967 78.9333 780.701 80.2C781.501 81.4667 782.601 82.3 784.001 82.7C785.201 83.0333 786.167 82.6333 786.901 81.5C787.634 80.3667 788.201 79 788.601 77.4C789.001 75.8 789.267 74.2 789.401 72.6C789.534 71 789.601 69.8667 789.601 69.2C789.601 68.8 789.801 68.5 790.201 68.3C790.667 68.1 791.001 68.2667 791.201 68.8C791.267 70.1333 791.467 71.5667 791.801 73.1C792.134 74.6333 792.667 76 793.401 77.2C794.134 78.4 795.067 79.3333 796.201 80C797.401 80.6 798.867 80.7 800.601 80.3C801.201 80.1667 801.467 80.3667 801.401 80.9C801.401 81.3667 801.134 81.6667 800.601 81.8C799.267 82.1333 798.067 82.2 797.001 82C795.934 81.8 795.001 81.4 794.201 80.8C793.401 80.2 792.734 79.4333 792.201 78.5C791.667 77.5667 791.201 76.5667 790.801 75.5C790.734 76.3667 790.534 77.3 790.201 78.3C789.867 79.3 789.434 80.2333 788.901 81.1C788.367 81.9667 787.667 82.7 786.801 83.3C786.001 83.8333 785.067 84.1 784.001 84.1C782.534 84.1 781.334 83.5333 780.401 82.4C779.534 81.2667 778.801 79.9333 778.201 78.4C777.667 76.8667 777.234 75.2667 776.901 73.6C776.634 71.9333 776.401 70.5333 776.201 69.4C775.667 70.5333 775.201 71.7 774.801 72.9C774.467 74.1 774.101 75.3 773.701 76.5C773.301 77.7 772.834 78.8667 772.301 80C771.834 81.0667 771.201 82.0667 770.401 83C769.801 83.4667 769.401 83.4 769.201 82.8C768.867 81.8667 768.601 80.4 768.401 78.4C768.201 76.4 768.101 74.3 768.101 72.1C768.167 69.8333 768.301 67.7 768.501 65.7C768.767 63.7 769.167 62.2333 769.701 61.3ZM798.82 74.9C798.887 73.8333 799.12 72.7667 799.52 71.7C799.92 70.6333 800.454 69.7333 801.12 69C801.787 68.2667 802.52 67.7667 803.32 67.5C804.12 67.1667 804.954 67.2333 805.82 67.7C807.22 68.4333 807.987 69.3667 808.12 70.5C808.32 71.5667 808.087 72.6 807.42 73.6C806.754 74.5333 805.787 75.3667 804.52 76.1C803.32 76.7667 801.987 77.0667 800.52 77C800.92 78.1333 801.754 78.9 803.02 79.3C804.287 79.6333 806.087 79.1333 808.42 77.8C809.02 77.6667 809.287 77.8 809.22 78.2C809.22 78.6 809.054 78.9333 808.72 79.2C807.654 79.8 806.487 80.3 805.22 80.7C804.02 81.0333 802.787 80.9 801.52 80.3C800.787 79.9667 800.12 79.4333 799.52 78.7C798.987 77.9 798.754 76.6333 798.82 74.9ZM805.02 69.2C804.287 68.9333 803.62 68.9667 803.02 69.3C802.42 69.5667 801.887 70.0333 801.42 70.7C801.02 71.3 800.687 72.0333 800.42 72.9C800.22 73.7 800.12 74.5 800.12 75.3C801.32 75.6333 802.387 75.5667 803.32 75.1C804.32 74.6333 805.087 74.0333 805.62 73.3C806.22 72.5667 806.487 71.8 806.42 71C806.354 70.2 805.887 69.6 805.02 69.2ZM818.846 69.8C819.246 70.2667 819.413 70.7333 819.346 71.2C819.279 71.6667 819.146 71.9667 818.946 72.1C819.013 73.2333 819.046 74.3333 819.046 75.4C819.113 76.4 819.213 77.4 819.346 78.4C819.413 78.8 819.513 79.5 819.646 80.5C819.846 81.4333 820.079 82.4 820.346 83.4C820.613 84.3333 820.913 85.1333 821.246 85.8C821.579 86.5333 821.946 86.8 822.346 86.6C822.879 86.2667 823.179 86.3 823.246 86.7C823.379 87.1667 823.246 87.5667 822.846 87.9C821.913 88.5 821.113 88.4 820.446 87.6C819.846 86.8667 819.346 85.9 818.946 84.7C818.613 83.5 818.346 82.3 818.146 81.1C818.013 79.9 817.946 79.1667 817.946 78.9C817.813 78.3667 817.713 77.7333 817.646 77C817.579 76.2667 817.513 75.6 817.446 75C817.113 75.8 816.613 76.5667 815.946 77.3C815.279 77.9667 814.546 78.4333 813.746 78.7C813.013 78.9667 812.246 79 811.446 78.8C810.646 78.6 810.013 78 809.546 77C809.013 75.9333 808.913 74.8667 809.246 73.8C809.579 72.7333 810.179 71.8 811.046 71C811.913 70.2 812.913 69.6 814.046 69.2C815.179 68.7333 816.279 68.6 817.346 68.8L816.446 48.2C816.646 47.9333 816.846 47.7333 817.046 47.6C817.313 47.4667 817.546 47.5667 817.746 47.9C817.946 49.1 818.113 50.7 818.246 52.7C818.379 54.6333 818.479 56.7 818.546 58.9C818.613 61.0333 818.679 63.1 818.746 65.1C818.813 67.0333 818.846 68.6 818.846 69.8ZM814.146 77C815.146 76.0667 815.879 75.0667 816.346 74C816.879 72.9333 817.246 71.7667 817.446 70.5C816.713 70.3 815.879 70.3333 814.946 70.6C814.013 70.8 813.179 71.2 812.446 71.8C811.713 72.3333 811.146 73 810.746 73.8C810.346 74.6 810.346 75.4333 810.746 76.3C811.079 76.9 811.546 77.3 812.146 77.5C812.746 77.7 813.413 77.5333 814.146 77Z" fill="#6500FF"/>
<path d="M1345.2 54.4C1345.33 53.8667 1345.57 53.6 1345.9 53.6C1346.3 53.6 1346.57 53.8333 1346.7 54.3C1346.57 57.3 1346.47 60.2667 1346.4 63.2C1346.33 66.0667 1346.27 69 1346.2 72C1347.27 70.9333 1348.43 69.7667 1349.7 68.5C1350.97 67.1667 1352.2 65.8667 1353.4 64.6C1354.6 63.2667 1355.7 62 1356.7 60.8C1357.77 59.5333 1358.6 58.4333 1359.2 57.5C1358.93 57.1 1358.93 56.7333 1359.2 56.4C1359.53 56.0667 1359.8 55.8333 1360 55.7C1360.2 55.5667 1360.47 55.4 1360.8 55.2C1361.47 55.2 1361.77 55.5 1361.7 56.1C1361.5 56.9 1360.8 58.0667 1359.6 59.6C1358.47 61.1333 1357.1 62.7667 1355.5 64.5C1353.97 66.2333 1352.33 67.9667 1350.6 69.7C1348.93 71.4333 1347.47 72.9 1346.2 74.1C1346.2 74.1667 1346.2 74.2333 1346.2 74.3C1346.27 74.3667 1346.3 74.4333 1346.3 74.5C1346.83 74.2333 1347.4 74 1348 73.8C1348.6 73.6 1349.17 73.3667 1349.7 73.1C1355.83 71.0333 1360.97 71.0667 1365.1 73.2C1369.23 75.3333 1372.37 79.1667 1374.5 84.7C1374.63 85.2333 1374.5 85.6 1374.1 85.8C1373.77 85.9333 1373.43 85.8667 1373.1 85.6C1370.77 78.9333 1367.33 75 1362.8 73.8C1358.27 72.5333 1352.73 73.4 1346.2 76.4C1346.2 78.0667 1346.2 79.7333 1346.2 81.4C1346.2 83.0667 1346.33 84.9667 1346.6 87.1C1346.53 87.6333 1346.3 87.9333 1345.9 88C1345.5 88.0667 1345.23 87.9 1345.1 87.5C1344.83 85.9 1344.7 84.2333 1344.7 82.5C1344.7 80.7667 1344.67 79.0667 1344.6 77.4C1344 77.8667 1343.37 78.4 1342.7 79C1342.03 79.5333 1341.37 80.0667 1340.7 80.6C1340.1 81.0667 1339.43 81.4333 1338.7 81.7C1338.03 81.9667 1337.33 82.0333 1336.6 81.9C1336.2 81.7 1336.1 81.3667 1336.3 80.9C1336.37 80.6333 1336.7 80.2333 1337.3 79.7C1337.97 79.1667 1338.67 78.6 1339.4 78C1340.2 77.4 1340.93 76.8333 1341.6 76.3C1342.33 75.7 1342.8 75.3 1343 75.1L1344.6 73.6C1344.67 70.4 1344.73 67.2 1344.8 64C1344.87 60.8 1345 57.6 1345.2 54.4ZM1374.5 64C1374.5 63.5333 1374.73 63.2 1375.2 63C1375.66 62.8 1375.96 62.9667 1376.1 63.5C1376.1 66.3667 1376.1 69.2333 1376.1 72.1C1376.1 74.9 1376.36 77.7333 1376.9 80.6C1377.5 78.4 1378.1 76.5333 1378.7 75C1379.3 73.4 1380.06 72.1333 1381 71.2C1382 70.2 1383.26 69.4667 1384.8 69C1386.33 68.4667 1388.36 68.1333 1390.9 68C1391.43 68.1333 1391.63 68.4 1391.5 68.8C1391.36 69.2 1391.1 69.4667 1390.7 69.6C1387.7 69.7333 1385.5 70.1333 1384.1 70.8C1382.7 71.4 1381.66 72.2667 1381 73.4C1380.4 74.4667 1379.9 75.8333 1379.5 77.5C1379.16 79.1 1378.56 80.9667 1377.7 83.1C1377.56 83.4333 1377.33 83.6667 1377 83.8C1376.66 83.9333 1376.4 83.7667 1376.2 83.3C1375.06 80.1667 1374.5 76.9667 1374.5 73.7C1374.5 70.4333 1374.5 67.2 1374.5 64ZM1394.43 67.8C1394.56 67.4667 1394.83 67.2333 1395.23 67.1C1395.63 66.9 1395.86 67.0667 1395.93 67.6C1395.86 70.1333 1395.76 72.6333 1395.63 75.1C1395.5 77.5 1395.4 79.9667 1395.33 82.5C1395.2 82.9667 1394.9 83.3 1394.43 83.5C1394.03 83.6333 1393.83 83.4 1393.83 82.8C1393.9 80.2667 1394 77.7667 1394.13 75.3C1394.26 72.8333 1394.36 70.3333 1394.43 67.8ZM1395.83 57.5C1396.1 57.8333 1396.03 58.2 1395.63 58.6C1395.3 59 1394.96 59.0667 1394.63 58.8C1394.23 58.5333 1394.23 58.2 1394.63 57.8C1395.03 57.3333 1395.43 57.2333 1395.83 57.5ZM1412.64 65.9C1413.04 66.2333 1413.11 66.5333 1412.84 66.8C1412.64 67.0667 1412.31 67.2 1411.84 67.2C1411.11 67.0667 1410.24 66.9667 1409.24 66.9C1408.31 66.7667 1407.34 66.6667 1406.34 66.6C1405.41 66.5333 1404.51 66.5333 1403.64 66.6C1402.78 66.6 1402.08 66.6667 1401.54 66.8C1401.21 66.9333 1400.98 67.1 1400.84 67.3C1400.78 67.5 1400.91 67.7667 1401.24 68.1C1401.91 68.7667 1402.74 69.4333 1403.74 70.1C1404.74 70.7667 1405.78 71.4667 1406.84 72.2C1407.98 72.8667 1409.11 73.5667 1410.24 74.3C1411.38 75.0333 1412.41 75.7667 1413.34 76.5C1414.28 76.3 1415.24 76.1667 1416.24 76.1C1417.24 76.0333 1418.21 75.9333 1419.14 75.8C1419.68 75.9333 1419.84 76.2 1419.64 76.6C1419.51 77 1419.24 77.2667 1418.84 77.4L1414.74 77.8C1415.61 78.6667 1416.08 79.5333 1416.14 80.4C1416.21 81.2 1416.01 81.9667 1415.54 82.7C1415.08 83.4333 1414.41 84.0667 1413.54 84.6C1412.74 85.1333 1411.84 85.5 1410.84 85.7C1409.98 85.9 1408.94 86 1407.74 86C1406.54 86.0667 1405.38 85.9667 1404.24 85.7C1403.11 85.4333 1402.11 85.0333 1401.24 84.5C1400.38 83.9 1399.88 83.1333 1399.74 82.2C1399.74 81.6667 1400.21 81.1333 1401.14 80.6C1402.14 80 1403.24 79.4667 1404.44 79C1405.71 78.4667 1406.94 78.0333 1408.14 77.7C1409.41 77.3 1410.34 77.0333 1410.94 76.9C1409.81 76.1 1408.58 75.2667 1407.24 74.4C1405.91 73.5333 1404.64 72.7333 1403.44 72C1402.31 71.2 1401.31 70.5 1400.44 69.9C1399.64 69.2333 1399.18 68.7 1399.04 68.3C1398.84 67.7667 1398.78 67.2333 1398.84 66.7C1398.98 66.1 1399.41 65.6667 1400.14 65.4C1400.81 65.2 1401.64 65.0667 1402.64 65C1403.64 64.9333 1404.68 64.9333 1405.74 65C1406.88 65 1408.04 65.1 1409.24 65.3C1410.44 65.4333 1411.58 65.6333 1412.64 65.9ZM1409.94 84.4C1412.28 83.8667 1413.71 83.0333 1414.24 81.9C1414.84 80.7 1414.28 79.4333 1412.54 78.1C1411.54 78.2333 1410.41 78.5 1409.14 78.9C1407.88 79.2333 1406.68 79.6 1405.54 80C1404.48 80.4 1403.54 80.8 1402.74 81.2C1401.94 81.6 1401.51 81.9333 1401.44 82.2C1401.44 82.7333 1401.78 83.1667 1402.44 83.5C1403.11 83.8333 1403.91 84.1 1404.84 84.3C1405.78 84.5 1406.71 84.6 1407.64 84.6C1408.64 84.6 1409.41 84.5333 1409.94 84.4ZM1419.33 51.4C1419.33 50.9333 1419.56 50.6 1420.03 50.4C1420.49 50.2 1420.79 50.3667 1420.93 50.9C1420.93 55.5667 1421.06 60.2 1421.33 64.8C1421.66 69.4 1422.09 74.0333 1422.63 78.7V78.5C1422.63 78.3 1422.63 78.4 1422.63 78.8C1422.69 79.1333 1422.76 79.4 1422.83 79.6C1423.16 78.2 1423.53 76.8667 1423.93 75.6C1424.33 74.2667 1424.89 72.9667 1425.63 71.7C1426.23 70.5 1426.86 69.8 1427.53 69.6C1428.19 69.3333 1428.83 69.4 1429.43 69.8C1430.03 70.1333 1430.63 70.6667 1431.23 71.4C1431.89 72.1333 1432.53 72.9333 1433.13 73.8C1433.73 74.6 1434.29 75.3333 1434.83 76C1435.43 76.6667 1435.99 77.1 1436.53 77.3C1436.93 77.5667 1436.99 77.8667 1436.73 78.2C1436.53 78.5333 1436.23 78.7 1435.83 78.7C1435.09 78.4333 1434.33 77.9 1433.53 77.1C1432.73 76.2333 1431.96 75.3333 1431.23 74.4C1430.56 73.4667 1429.93 72.6333 1429.33 71.9C1428.79 71.1667 1428.43 70.8 1428.23 70.8C1426.69 72.3333 1425.69 74.1333 1425.23 76.2C1424.76 78.2 1424.23 80.2333 1423.63 82.3C1423.43 82.7 1423.09 82.9 1422.63 82.9C1422.23 82.9 1421.89 82.7333 1421.63 82.4C1420.76 77.2667 1420.16 72.1333 1419.83 67C1419.49 61.8 1419.33 56.6 1419.33 51.4ZM1439.66 68.4C1439.8 68 1440.03 67.7333 1440.36 67.6C1440.76 67.4 1441.03 67.5667 1441.16 68.1C1441.03 70.2333 1440.83 72.4 1440.56 74.6C1440.36 76.8 1440.26 79 1440.26 81.2C1440.86 80.1333 1441.43 79 1441.96 77.8C1442.5 76.5333 1443.03 75.4 1443.56 74.4C1444.16 73.3333 1444.73 72.4333 1445.26 71.7C1445.86 70.9667 1446.53 70.5667 1447.26 70.5C1448 70.4333 1448.8 70.8 1449.66 71.6C1450.53 72.4 1451.53 73.8 1452.66 75.8C1453.2 76.6667 1453.7 77.5333 1454.16 78.4C1454.7 79.2 1455.3 79.9667 1455.96 80.7C1456.3 81.1 1456.23 81.5 1455.76 81.9C1455.36 82.2333 1455 82.2333 1454.66 81.9C1454.13 81.3 1453.56 80.4667 1452.96 79.4C1452.36 78.2667 1451.73 77.2 1451.06 76.2C1450.46 75.1333 1449.8 74.2 1449.06 73.4C1448.33 72.6 1447.56 72.2 1446.76 72.2C1445.96 72.8667 1445.3 73.6667 1444.76 74.6C1444.3 75.4667 1443.86 76.4 1443.46 77.4C1443.06 78.3333 1442.63 79.3 1442.16 80.3C1441.76 81.2333 1441.23 82.1 1440.56 82.9C1440.3 83.1667 1439.96 83.3 1439.56 83.3C1439.23 83.3 1439 83.1 1438.86 82.7C1438.53 80.3667 1438.53 77.9667 1438.86 75.5C1439.2 73.0333 1439.46 70.6667 1439.66 68.4ZM1469.78 71C1469.91 71.3333 1469.78 71.6667 1469.38 72C1469.05 72.3333 1468.71 72.3333 1468.38 72C1468.65 73.2667 1468.98 74.6 1469.38 76C1469.78 77.4 1470.18 78.7667 1470.58 80.1C1470.98 81.3667 1471.41 82.5333 1471.88 83.6C1472.35 84.6 1472.78 85.3667 1473.18 85.9C1473.31 86.3 1473.18 86.6333 1472.78 86.9C1472.45 87.2333 1472.11 87.2333 1471.78 86.9C1470.65 85.2333 1469.88 83.5 1469.48 81.7C1469.08 79.9 1468.65 78.0333 1468.18 76.1L1467.68 74.4C1467.35 76.2 1466.71 77.8 1465.78 79.2C1465.18 80 1464.41 80.7667 1463.48 81.5C1462.61 82.2333 1461.71 82.7333 1460.78 83C1459.91 83.2 1459.11 83.0667 1458.38 82.6C1457.65 82.1333 1457.15 81.1333 1456.88 79.6C1456.68 78.2 1456.81 76.8 1457.28 75.4C1457.75 73.9333 1458.41 72.6333 1459.28 71.5C1460.21 70.3 1461.25 69.3333 1462.38 68.6C1463.58 67.8 1464.71 67.3333 1465.78 67.2V66.8C1465.91 66.4667 1466.11 66.2333 1466.38 66.1C1466.71 65.9667 1467.01 66.0667 1467.28 66.4L1467.48 67.6C1468.61 68.0667 1469.38 69.2 1469.78 71ZM1464.58 78.6C1465.51 77.1333 1466.05 75.5667 1466.18 73.9C1466.31 72.2333 1466.28 70.5667 1466.08 68.9C1465.28 68.7667 1464.38 69 1463.38 69.6C1462.38 70.1333 1461.48 70.9 1460.68 71.9C1459.88 72.9 1459.25 74.0333 1458.78 75.3C1458.31 76.5 1458.18 77.6333 1458.38 78.7C1458.58 79.8333 1458.91 80.6 1459.38 81C1459.85 81.3333 1460.38 81.4667 1460.98 81.4C1461.58 81.2667 1462.18 80.9667 1462.78 80.5C1463.45 79.9667 1464.05 79.3333 1464.58 78.6ZM1474.55 64C1474.55 63.5333 1474.78 63.2 1475.25 63C1475.72 62.8 1476.02 62.9667 1476.15 63.5C1476.15 66.3667 1476.15 69.2333 1476.15 72.1C1476.15 74.9 1476.42 77.7333 1476.95 80.6C1477.55 78.4 1478.15 76.5333 1478.75 75C1479.35 73.4 1480.12 72.1333 1481.05 71.2C1482.05 70.2 1483.32 69.4667 1484.85 69C1486.38 68.4667 1488.42 68.1333 1490.95 68C1491.48 68.1333 1491.68 68.4 1491.55 68.8C1491.42 69.2 1491.15 69.4667 1490.75 69.6C1487.75 69.7333 1485.55 70.1333 1484.15 70.8C1482.75 71.4 1481.72 72.2667 1481.05 73.4C1480.45 74.4667 1479.95 75.8333 1479.55 77.5C1479.22 79.1 1478.62 80.9667 1477.75 83.1C1477.62 83.4333 1477.38 83.6667 1477.05 83.8C1476.72 83.9333 1476.45 83.7667 1476.25 83.3C1475.12 80.1667 1474.55 76.9667 1474.55 73.7C1474.55 70.4333 1474.55 67.2 1474.55 64ZM1502.64 71C1502.78 71.3333 1502.64 71.6667 1502.24 72C1501.91 72.3333 1501.58 72.3333 1501.24 72C1501.51 73.2667 1501.84 74.6 1502.24 76C1502.64 77.4 1503.04 78.7667 1503.44 80.1C1503.84 81.3667 1504.28 82.5333 1504.74 83.6C1505.21 84.6 1505.64 85.3667 1506.04 85.9C1506.18 86.3 1506.04 86.6333 1505.64 86.9C1505.31 87.2333 1504.98 87.2333 1504.64 86.9C1503.51 85.2333 1502.74 83.5 1502.34 81.7C1501.94 79.9 1501.51 78.0333 1501.04 76.1L1500.54 74.4C1500.21 76.2 1499.58 77.8 1498.64 79.2C1498.04 80 1497.28 80.7667 1496.34 81.5C1495.48 82.2333 1494.58 82.7333 1493.64 83C1492.78 83.2 1491.98 83.0667 1491.24 82.6C1490.51 82.1333 1490.01 81.1333 1489.74 79.6C1489.54 78.2 1489.68 76.8 1490.14 75.4C1490.61 73.9333 1491.28 72.6333 1492.14 71.5C1493.08 70.3 1494.11 69.3333 1495.24 68.6C1496.44 67.8 1497.58 67.3333 1498.64 67.2V66.8C1498.78 66.4667 1498.98 66.2333 1499.24 66.1C1499.58 65.9667 1499.88 66.0667 1500.14 66.4L1500.34 67.6C1501.48 68.0667 1502.24 69.2 1502.64 71ZM1497.44 78.6C1498.38 77.1333 1498.91 75.5667 1499.04 73.9C1499.18 72.2333 1499.14 70.5667 1498.94 68.9C1498.14 68.7667 1497.24 69 1496.24 69.6C1495.24 70.1333 1494.34 70.9 1493.54 71.9C1492.74 72.9 1492.11 74.0333 1491.64 75.3C1491.18 76.5 1491.04 77.6333 1491.24 78.7C1491.44 79.8333 1491.78 80.6 1492.24 81C1492.71 81.3333 1493.24 81.4667 1493.84 81.4C1494.44 81.2667 1495.04 80.9667 1495.64 80.5C1496.31 79.9667 1496.91 79.3333 1497.44 78.6ZM1508.13 66.2C1507.99 65.7333 1508.09 65.3667 1508.42 65.1C1508.83 64.7667 1509.19 64.8333 1509.53 65.3C1510.46 67.5667 1511.29 70 1512.03 72.6C1512.76 75.1333 1513.39 77.1667 1513.93 78.7L1518.83 74.4C1519.23 74.0667 1519.56 74.0333 1519.82 74.3C1520.09 74.5667 1520.06 74.9333 1519.73 75.4C1518.79 76.1333 1517.89 76.9333 1517.03 77.8C1516.16 78.6 1515.26 79.4 1514.33 80.2C1515.13 83.9333 1515.73 87.5333 1516.13 91C1516.53 94.5333 1516.66 97.7667 1516.53 100.7C1516.46 103.7 1516.09 106.333 1515.43 108.6C1514.83 110.867 1513.83 112.567 1512.43 113.7C1511.36 114.567 1509.79 115.067 1507.73 115.2C1505.73 115.4 1503.72 115.167 1501.72 114.5C1499.72 113.9 1498.06 112.833 1496.72 111.3C1495.39 109.833 1494.89 107.8 1495.22 105.2C1495.49 103.333 1495.96 101.6 1496.62 100C1497.22 98.4 1498.02 96.8667 1499.02 95.4C1499.96 93.9333 1501.02 92.4667 1502.22 91C1503.36 89.6 1504.59 88.1333 1505.93 86.6C1506.99 85.4 1508.06 84.2667 1509.13 83.2C1510.19 82.1333 1511.33 81.0333 1512.53 79.9C1511.86 77.6333 1511.13 75.2 1510.33 72.6C1509.59 70 1508.86 67.8667 1508.13 66.2ZM1512.43 111C1513.43 109.4 1514.13 107.467 1514.53 105.2C1514.99 102.933 1515.19 100.5 1515.13 97.9C1515.13 95.3 1514.93 92.6 1514.53 89.8C1514.13 87 1513.63 84.2667 1513.03 81.6C1510.09 84.3333 1507.33 87.1333 1504.72 90C1502.12 92.9333 1500.02 96.1667 1498.42 99.7C1497.82 100.967 1497.39 102.233 1497.12 103.5C1496.79 104.833 1496.72 106.1 1496.92 107.3C1497.12 108.5 1497.62 109.6 1498.42 110.6C1499.22 111.6 1500.42 112.433 1502.02 113.1C1502.82 113.433 1503.72 113.667 1504.72 113.8C1505.73 113.933 1506.69 113.933 1507.63 113.8C1508.63 113.667 1509.53 113.367 1510.33 112.9C1511.19 112.5 1511.89 111.867 1512.43 111ZM1506.13 59.8C1505.59 59.7333 1505.39 59.5 1505.53 59.1C1505.73 58.6333 1506.06 58.3667 1506.53 58.3C1507.66 58.3667 1508.09 58.6333 1507.83 59.1C1507.63 59.5667 1507.06 59.8 1506.13 59.8Z" fill="#6500FF"/>
<path d="M875.9 86.3C875.367 86.2333 875.1 86.0333 875.1 85.7C875.1 85.3 875.3 85 875.7 84.8C877.633 84.8 879.567 84.7333 881.5 84.6C883.5 84.4667 885.467 84.3 887.4 84.1C886.8 79.5 886.4 74.9 886.2 70.3C886.067 65.7 886 61.1 886 56.5C884.333 56.7667 882.7 57 881.1 57.2C879.5 57.3333 877.867 57.4333 876.2 57.5C875.733 57.3667 875.5 57.1333 875.5 56.8C875.5 56.4667 875.667 56.1667 876 55.9C876.867 55.9 877.767 55.8667 878.7 55.8C879.633 55.7333 880.867 55.6 882.4 55.4C883.933 55.2 885.867 54.9333 888.2 54.6C890.533 54.2667 893.5 53.8 897.1 53.2C897.633 53.2 897.933 53.4333 898 53.9C898.067 54.3667 897.833 54.6667 897.3 54.8C895.633 55 894 55.2333 892.4 55.5C890.8 55.7667 889.167 56.0667 887.5 56.4C887.5 61 887.6 65.6 887.8 70.2C888 74.7333 888.367 79.3 888.9 83.9C891.233 83.6333 893.5 83.3333 895.7 83C897.967 82.6667 900.267 82.3333 902.6 82C903.133 82 903.433 82.2333 903.5 82.7C903.567 83.1667 903.3 83.4667 902.7 83.6C900.433 83.9333 898.167 84.2667 895.9 84.6C893.7 84.9333 891.433 85.2333 889.1 85.5C889.1 86.0333 888.867 86.3 888.4 86.3C887.933 86.3667 887.633 86.1667 887.5 85.7C885.567 85.8333 883.633 85.9667 881.7 86.1C879.767 86.2333 877.833 86.3 875.9 86.3ZM900.388 68.6C900.388 68.1333 900.588 67.8 900.988 67.6C901.455 67.4 901.755 67.5667 901.888 68.1C901.955 68.9 902.155 70.0333 902.488 71.5C902.822 72.9 903.188 74.3667 903.588 75.9C904.055 77.3667 904.522 78.7333 904.988 80C905.522 81.2667 906.022 82.1333 906.488 82.6C907.355 82.0667 908.088 80.9667 908.688 79.3C909.288 77.6333 909.755 75.8333 910.088 73.9C910.488 71.9667 910.755 70.0667 910.888 68.2C911.088 66.3333 911.222 64.9 911.288 63.9C911.422 63.5 911.655 63.3 911.988 63.3C912.388 63.2333 912.622 63.4667 912.688 64C912.555 65.5333 912.388 67.3333 912.188 69.4C911.988 71.4 911.655 73.4 911.188 75.4C910.788 77.3333 910.188 79.1333 909.388 80.8C908.655 82.4667 907.655 83.7333 906.388 84.6C906.055 84.8 905.788 84.7333 905.588 84.4C904.988 83.7333 904.388 82.6333 903.788 81.1C903.188 79.5667 902.622 77.9667 902.088 76.3C901.622 74.5667 901.222 72.9667 900.888 71.5C900.555 70.0333 900.388 69.0667 900.388 68.6ZM926.646 71C926.779 71.3333 926.646 71.6667 926.246 72C925.913 72.3333 925.579 72.3333 925.246 72C925.513 73.2667 925.846 74.6 926.246 76C926.646 77.4 927.046 78.7667 927.446 80.1C927.846 81.3667 928.279 82.5333 928.746 83.6C929.213 84.6 929.646 85.3667 930.046 85.9C930.179 86.3 930.046 86.6333 929.646 86.9C929.313 87.2333 928.979 87.2333 928.646 86.9C927.513 85.2333 926.746 83.5 926.346 81.7C925.946 79.9 925.513 78.0333 925.046 76.1L924.546 74.4C924.213 76.2 923.579 77.8 922.646 79.2C922.046 80 921.279 80.7667 920.346 81.5C919.479 82.2333 918.579 82.7333 917.646 83C916.779 83.2 915.979 83.0667 915.246 82.6C914.513 82.1333 914.013 81.1333 913.746 79.6C913.546 78.2 913.679 76.8 914.146 75.4C914.613 73.9333 915.279 72.6333 916.146 71.5C917.079 70.3 918.113 69.3333 919.246 68.6C920.446 67.8 921.579 67.3333 922.646 67.2V66.8C922.779 66.4667 922.979 66.2333 923.246 66.1C923.579 65.9667 923.879 66.0667 924.146 66.4L924.346 67.6C925.479 68.0667 926.246 69.2 926.646 71ZM921.446 78.6C922.379 77.1333 922.913 75.5667 923.046 73.9C923.179 72.2333 923.146 70.5667 922.946 68.9C922.146 68.7667 921.246 69 920.246 69.6C919.246 70.1333 918.346 70.9 917.546 71.9C916.746 72.9 916.113 74.0333 915.646 75.3C915.179 76.5 915.046 77.6333 915.246 78.7C915.446 79.8333 915.779 80.6 916.246 81C916.713 81.3333 917.246 81.4667 917.846 81.4C918.446 81.2667 919.046 80.9667 919.646 80.5C920.313 79.9667 920.913 79.3333 921.446 78.6ZM932.517 68.4C932.651 68 932.884 67.7333 933.217 67.6C933.617 67.4 933.884 67.5667 934.017 68.1C933.884 70.2333 933.684 72.4 933.417 74.6C933.217 76.8 933.117 79 933.117 81.2C933.717 80.1333 934.284 79 934.817 77.8C935.351 76.5333 935.884 75.4 936.417 74.4C937.017 73.3333 937.584 72.4333 938.117 71.7C938.717 70.9667 939.384 70.5667 940.117 70.5C940.851 70.4333 941.651 70.8 942.517 71.6C943.384 72.4 944.384 73.8 945.517 75.8C946.051 76.6667 946.551 77.5333 947.017 78.4C947.551 79.2 948.151 79.9667 948.817 80.7C949.151 81.1 949.084 81.5 948.617 81.9C948.217 82.2333 947.851 82.2333 947.517 81.9C946.984 81.3 946.417 80.4667 945.817 79.4C945.217 78.2667 944.584 77.2 943.917 76.2C943.317 75.1333 942.651 74.2 941.917 73.4C941.184 72.6 940.417 72.2 939.617 72.2C938.817 72.8667 938.151 73.6667 937.617 74.6C937.151 75.4667 936.717 76.4 936.317 77.4C935.917 78.3333 935.484 79.3 935.017 80.3C934.617 81.2333 934.084 82.1 933.417 82.9C933.151 83.1667 932.817 83.3 932.417 83.3C932.084 83.3 931.851 83.1 931.717 82.7C931.384 80.3667 931.384 77.9667 931.717 75.5C932.051 73.0333 932.317 70.6667 932.517 68.4ZM962.634 71C962.768 71.3333 962.634 71.6667 962.234 72C961.901 72.3333 961.568 72.3333 961.234 72C961.501 73.2667 961.834 74.6 962.234 76C962.634 77.4 963.034 78.7667 963.434 80.1C963.834 81.3667 964.268 82.5333 964.734 83.6C965.201 84.6 965.634 85.3667 966.034 85.9C966.168 86.3 966.034 86.6333 965.634 86.9C965.301 87.2333 964.968 87.2333 964.634 86.9C963.501 85.2333 962.734 83.5 962.334 81.7C961.934 79.9 961.501 78.0333 961.034 76.1L960.534 74.4C960.201 76.2 959.568 77.8 958.634 79.2C958.034 80 957.268 80.7667 956.334 81.5C955.468 82.2333 954.568 82.7333 953.634 83C952.768 83.2 951.968 83.0667 951.234 82.6C950.501 82.1333 950.001 81.1333 949.734 79.6C949.534 78.2 949.668 76.8 950.134 75.4C950.601 73.9333 951.268 72.6333 952.134 71.5C953.068 70.3 954.101 69.3333 955.234 68.6C956.434 67.8 957.568 67.3333 958.634 67.2V66.8C958.768 66.4667 958.968 66.2333 959.234 66.1C959.568 65.9667 959.868 66.0667 960.134 66.4L960.334 67.6C961.468 68.0667 962.234 69.2 962.634 71ZM957.434 78.6C958.368 77.1333 958.901 75.5667 959.034 73.9C959.168 72.2333 959.134 70.5667 958.934 68.9C958.134 68.7667 957.234 69 956.234 69.6C955.234 70.1333 954.334 70.9 953.534 71.9C952.734 72.9 952.101 74.0333 951.634 75.3C951.168 76.5 951.034 77.6333 951.234 78.7C951.434 79.8333 951.768 80.6 952.234 81C952.701 81.3333 953.234 81.4667 953.834 81.4C954.434 81.2667 955.034 80.9667 955.634 80.5C956.301 79.9667 956.901 79.3333 957.434 78.6Z" fill="#6500FF"/>
<path d="M1034.43 83.4C1034.56 82.8667 1034.79 82.6 1035.13 82.6C1035.53 82.6 1035.79 82.8333 1035.93 83.3C1035.79 86.3 1035.69 89.2667 1035.63 92.2C1035.56 95.0667 1035.49 98 1035.43 101C1036.49 99.9333 1037.66 98.7667 1038.93 97.5C1040.19 96.1667 1041.43 94.8667 1042.63 93.6C1043.83 92.2667 1044.93 91 1045.93 89.8C1046.99 88.5333 1047.83 87.4333 1048.43 86.5C1048.16 86.1 1048.16 85.7333 1048.43 85.4C1048.76 85.0667 1049.03 84.8333 1049.23 84.7C1049.43 84.5667 1049.69 84.4 1050.03 84.2C1050.69 84.2 1050.99 84.5 1050.93 85.1C1050.73 85.9 1050.03 87.0667 1048.83 88.6C1047.69 90.1333 1046.33 91.7667 1044.73 93.5C1043.19 95.2333 1041.56 96.9667 1039.83 98.7C1038.16 100.433 1036.69 101.9 1035.43 103.1C1035.43 103.167 1035.43 103.233 1035.43 103.3C1035.49 103.367 1035.53 103.433 1035.53 103.5C1036.06 103.233 1036.63 103 1037.23 102.8C1037.83 102.6 1038.39 102.367 1038.93 102.1C1045.06 100.033 1050.19 100.067 1054.33 102.2C1058.46 104.333 1061.59 108.167 1063.73 113.7C1063.86 114.233 1063.73 114.6 1063.33 114.8C1062.99 114.933 1062.66 114.867 1062.33 114.6C1059.99 107.933 1056.56 104 1052.03 102.8C1047.49 101.533 1041.96 102.4 1035.43 105.4C1035.43 107.067 1035.43 108.733 1035.43 110.4C1035.43 112.067 1035.56 113.967 1035.83 116.1C1035.76 116.633 1035.53 116.933 1035.13 117C1034.73 117.067 1034.46 116.9 1034.33 116.5C1034.06 114.9 1033.93 113.233 1033.93 111.5C1033.93 109.767 1033.89 108.067 1033.83 106.4C1033.23 106.867 1032.59 107.4 1031.93 108C1031.26 108.533 1030.59 109.067 1029.93 109.6C1029.33 110.067 1028.66 110.433 1027.93 110.7C1027.26 110.967 1026.56 111.033 1025.83 110.9C1025.43 110.7 1025.33 110.367 1025.53 109.9C1025.59 109.633 1025.93 109.233 1026.53 108.7C1027.19 108.167 1027.89 107.6 1028.63 107C1029.43 106.4 1030.16 105.833 1030.83 105.3C1031.56 104.7 1032.03 104.3 1032.23 104.1L1033.83 102.6C1033.89 99.4 1033.96 96.2 1034.03 93C1034.09 89.8 1034.23 86.6 1034.43 83.4ZM1062.92 104.9C1062.99 103.833 1063.22 102.767 1063.62 101.7C1064.02 100.633 1064.56 99.7333 1065.22 99C1065.89 98.2667 1066.62 97.7667 1067.42 97.5C1068.22 97.1667 1069.06 97.2333 1069.92 97.7C1071.32 98.4333 1072.09 99.3667 1072.22 100.5C1072.42 101.567 1072.19 102.6 1071.52 103.6C1070.86 104.533 1069.89 105.367 1068.62 106.1C1067.42 106.767 1066.09 107.067 1064.62 107C1065.02 108.133 1065.86 108.9 1067.12 109.3C1068.39 109.633 1070.19 109.133 1072.52 107.8C1073.12 107.667 1073.39 107.8 1073.32 108.2C1073.32 108.6 1073.16 108.933 1072.82 109.2C1071.76 109.8 1070.59 110.3 1069.32 110.7C1068.12 111.033 1066.89 110.9 1065.62 110.3C1064.89 109.967 1064.22 109.433 1063.62 108.7C1063.09 107.9 1062.86 106.633 1062.92 104.9ZM1069.12 99.2C1068.39 98.9333 1067.72 98.9667 1067.12 99.3C1066.52 99.5667 1065.99 100.033 1065.52 100.7C1065.12 101.3 1064.79 102.033 1064.52 102.9C1064.32 103.7 1064.22 104.5 1064.22 105.3C1065.42 105.633 1066.49 105.567 1067.42 105.1C1068.42 104.633 1069.19 104.033 1069.72 103.3C1070.32 102.567 1070.59 101.8 1070.52 101C1070.46 100.2 1069.99 99.6 1069.12 99.2ZM1075.12 93C1075.12 92.5333 1075.36 92.2 1075.82 92C1076.29 91.8 1076.59 91.9667 1076.72 92.5C1076.72 95.3667 1076.72 98.2333 1076.72 101.1C1076.72 103.9 1076.99 106.733 1077.52 109.6C1078.12 107.4 1078.72 105.533 1079.32 104C1079.92 102.4 1080.69 101.133 1081.62 100.2C1082.62 99.2 1083.89 98.4667 1085.42 98C1086.96 97.4667 1088.99 97.1333 1091.52 97C1092.06 97.1333 1092.26 97.4 1092.12 97.8C1091.99 98.2 1091.72 98.4667 1091.32 98.6C1088.32 98.7333 1086.12 99.1333 1084.72 99.8C1083.32 100.4 1082.29 101.267 1081.62 102.4C1081.02 103.467 1080.52 104.833 1080.12 106.5C1079.79 108.1 1079.19 109.967 1078.32 112.1C1078.19 112.433 1077.96 112.667 1077.62 112.8C1077.29 112.933 1077.02 112.767 1076.82 112.3C1075.69 109.167 1075.12 105.967 1075.12 102.7C1075.12 99.4333 1075.12 96.2 1075.12 93ZM1091 104.9C1091.07 103.833 1091.3 102.767 1091.7 101.7C1092.1 100.633 1092.63 99.7333 1093.3 99C1093.97 98.2667 1094.7 97.7667 1095.5 97.5C1096.3 97.1667 1097.13 97.2333 1098 97.7C1099.4 98.4333 1100.17 99.3667 1100.3 100.5C1100.5 101.567 1100.27 102.6 1099.6 103.6C1098.93 104.533 1097.97 105.367 1096.7 106.1C1095.5 106.767 1094.17 107.067 1092.7 107C1093.1 108.133 1093.93 108.9 1095.2 109.3C1096.47 109.633 1098.27 109.133 1100.6 107.8C1101.2 107.667 1101.47 107.8 1101.4 108.2C1101.4 108.6 1101.23 108.933 1100.9 109.2C1099.83 109.8 1098.67 110.3 1097.4 110.7C1096.2 111.033 1094.97 110.9 1093.7 110.3C1092.97 109.967 1092.3 109.433 1091.7 108.7C1091.17 107.9 1090.93 106.633 1091 104.9ZM1097.2 99.2C1096.47 98.9333 1095.8 98.9667 1095.2 99.3C1094.6 99.5667 1094.07 100.033 1093.6 100.7C1093.2 101.3 1092.87 102.033 1092.6 102.9C1092.4 103.7 1092.3 104.5 1092.3 105.3C1093.5 105.633 1094.57 105.567 1095.5 105.1C1096.5 104.633 1097.27 104.033 1097.8 103.3C1098.4 102.567 1098.67 101.8 1098.6 101C1098.53 100.2 1098.07 99.6 1097.2 99.2ZM1104.4 97.4C1104.53 97 1104.77 96.7333 1105.1 96.6C1105.5 96.4 1105.77 96.5667 1105.9 97.1C1105.77 99.2333 1105.57 101.4 1105.3 103.6C1105.1 105.8 1105 108 1105 110.2C1105.6 109.133 1106.17 108 1106.7 106.8C1107.23 105.533 1107.77 104.4 1108.3 103.4C1108.9 102.333 1109.47 101.433 1110 100.7C1110.6 99.9667 1111.27 99.5667 1112 99.5C1112.73 99.4333 1113.53 99.8 1114.4 100.6C1115.27 101.4 1116.27 102.8 1117.4 104.8C1117.93 105.667 1118.43 106.533 1118.9 107.4C1119.43 108.2 1120.03 108.967 1120.7 109.7C1121.03 110.1 1120.97 110.5 1120.5 110.9C1120.1 111.233 1119.73 111.233 1119.4 110.9C1118.87 110.3 1118.3 109.467 1117.7 108.4C1117.1 107.267 1116.47 106.2 1115.8 105.2C1115.2 104.133 1114.53 103.2 1113.8 102.4C1113.07 101.6 1112.3 101.2 1111.5 101.2C1110.7 101.867 1110.03 102.667 1109.5 103.6C1109.03 104.467 1108.6 105.4 1108.2 106.4C1107.8 107.333 1107.37 108.3 1106.9 109.3C1106.5 110.233 1105.97 111.1 1105.3 111.9C1105.03 112.167 1104.7 112.3 1104.3 112.3C1103.97 112.3 1103.73 112.1 1103.6 111.7C1103.27 109.367 1103.27 106.967 1103.6 104.5C1103.93 102.033 1104.2 99.6667 1104.4 97.4Z" fill="#6500FF"/>
<path d="M1206 108C1205.4 108.133 1205.07 108 1205 107.6C1204.93 107.133 1205.1 106.767 1205.5 106.5L1208.2 105.4C1207.8 102.867 1207.67 100.367 1207.8 97.9C1207.93 95.4333 1208.63 93.3667 1209.9 91.7C1210.23 91.3 1210.93 91.0333 1212 90.9C1213.13 90.7667 1214.3 90.7 1215.5 90.7C1216.77 90.7 1217.97 90.7333 1219.1 90.8C1220.3 90.8667 1221.1 90.9 1221.5 90.9C1221.97 91.0333 1222.2 91.3 1222.2 91.7C1222.2 92.1 1221.93 92.3667 1221.4 92.5C1220.6 92.5 1219.67 92.4667 1218.6 92.4C1217.6 92.3333 1216.57 92.3 1215.5 92.3C1214.5 92.2333 1213.57 92.2667 1212.7 92.4C1211.9 92.4667 1211.33 92.6333 1211 92.9C1210.2 93.6333 1209.7 95.1333 1209.5 97.4C1209.37 99.6667 1209.47 102.133 1209.8 104.8C1212.2 103.933 1214.6 103.233 1217 102.7C1219.47 102.1 1221.93 101.5 1224.4 100.9C1224.93 100.9 1225.23 101.1 1225.3 101.5C1225.43 101.833 1225.3 102.133 1224.9 102.4C1222.37 103 1219.83 103.6 1217.3 104.2C1214.83 104.733 1212.37 105.467 1209.9 106.4C1210.1 107.8 1210.37 109.167 1210.7 110.5C1211.03 111.833 1211.4 113.067 1211.8 114.2C1212.2 115.267 1212.6 116.2 1213 117C1213.47 117.8 1213.97 118.333 1214.5 118.6C1215.1 118.933 1215.87 118.967 1216.8 118.7C1217.8 118.433 1218.8 118.067 1219.8 117.6C1220.8 117.133 1221.77 116.633 1222.7 116.1C1223.63 115.567 1224.37 115.167 1224.9 114.9C1225.37 114.9 1225.67 115.1 1225.8 115.5C1225.93 115.833 1225.77 116.133 1225.3 116.4C1224.43 116.867 1223.53 117.367 1222.6 117.9C1221.73 118.433 1220.83 118.9 1219.9 119.3C1218.97 119.7 1218 120 1217 120.2C1216 120.333 1214.97 120.267 1213.9 120C1212.97 119.733 1212.2 119.033 1211.6 117.9C1211 116.7 1210.6 115.733 1210.4 115C1210.07 113.933 1209.73 112.7 1209.4 111.3C1209.07 109.9 1208.77 108.433 1208.5 106.9L1206 108ZM1228.98 97.3C1229.25 96.9667 1229.58 96.8 1229.98 96.8C1230.38 96.8 1230.52 97.0667 1230.38 97.6C1229.98 98.3333 1229.65 99.6 1229.38 101.4C1229.18 103.2 1229.05 105.133 1228.98 107.2C1228.92 109.2 1228.92 111.133 1228.98 113C1229.12 114.8 1229.32 116.1 1229.58 116.9C1230.58 114.567 1231.45 112.233 1232.18 109.9C1232.92 107.5 1233.95 105.233 1235.28 103.1C1235.48 102.833 1235.68 102.633 1235.88 102.5C1236.15 102.367 1236.42 102.467 1236.68 102.8C1236.95 103.933 1237.18 105.333 1237.38 107C1237.58 108.6 1237.88 110.233 1238.28 111.9C1238.68 113.5 1239.25 114.933 1239.98 116.2C1240.78 117.467 1241.88 118.3 1243.28 118.7C1244.48 119.033 1245.45 118.633 1246.18 117.5C1246.92 116.367 1247.48 115 1247.88 113.4C1248.28 111.8 1248.55 110.2 1248.68 108.6C1248.82 107 1248.88 105.867 1248.88 105.2C1248.88 104.8 1249.08 104.5 1249.48 104.3C1249.95 104.1 1250.28 104.267 1250.48 104.8C1250.55 106.133 1250.75 107.567 1251.08 109.1C1251.42 110.633 1251.95 112 1252.68 113.2C1253.42 114.4 1254.35 115.333 1255.48 116C1256.68 116.6 1258.15 116.7 1259.88 116.3C1260.48 116.167 1260.75 116.367 1260.68 116.9C1260.68 117.367 1260.42 117.667 1259.88 117.8C1258.55 118.133 1257.35 118.2 1256.28 118C1255.22 117.8 1254.28 117.4 1253.48 116.8C1252.68 116.2 1252.02 115.433 1251.48 114.5C1250.95 113.567 1250.48 112.567 1250.08 111.5C1250.02 112.367 1249.82 113.3 1249.48 114.3C1249.15 115.3 1248.72 116.233 1248.18 117.1C1247.65 117.967 1246.95 118.7 1246.08 119.3C1245.28 119.833 1244.35 120.1 1243.28 120.1C1241.82 120.1 1240.62 119.533 1239.68 118.4C1238.82 117.267 1238.08 115.933 1237.48 114.4C1236.95 112.867 1236.52 111.267 1236.18 109.6C1235.92 107.933 1235.68 106.533 1235.48 105.4C1234.95 106.533 1234.48 107.7 1234.08 108.9C1233.75 110.1 1233.38 111.3 1232.98 112.5C1232.58 113.7 1232.12 114.867 1231.58 116C1231.12 117.067 1230.48 118.067 1229.68 119C1229.08 119.467 1228.68 119.4 1228.48 118.8C1228.15 117.867 1227.88 116.4 1227.68 114.4C1227.48 112.4 1227.38 110.3 1227.38 108.1C1227.45 105.833 1227.58 103.7 1227.78 101.7C1228.05 99.7 1228.45 98.2333 1228.98 97.3ZM1261.09 97.3C1261.35 96.9667 1261.69 96.8 1262.09 96.8C1262.49 96.8 1262.62 97.0667 1262.49 97.6C1262.09 98.3333 1261.75 99.6 1261.49 101.4C1261.29 103.2 1261.15 105.133 1261.09 107.2C1261.02 109.2 1261.02 111.133 1261.09 113C1261.22 114.8 1261.42 116.1 1261.69 116.9C1262.69 114.567 1263.55 112.233 1264.29 109.9C1265.02 107.5 1266.05 105.233 1267.39 103.1C1267.59 102.833 1267.79 102.633 1267.99 102.5C1268.25 102.367 1268.52 102.467 1268.79 102.8C1269.05 103.933 1269.29 105.333 1269.49 107C1269.69 108.6 1269.99 110.233 1270.39 111.9C1270.79 113.5 1271.35 114.933 1272.09 116.2C1272.89 117.467 1273.99 118.3 1275.39 118.7C1276.59 119.033 1277.55 118.633 1278.29 117.5C1279.02 116.367 1279.59 115 1279.99 113.4C1280.39 111.8 1280.65 110.2 1280.79 108.6C1280.92 107 1280.99 105.867 1280.99 105.2C1280.99 104.8 1281.19 104.5 1281.59 104.3C1282.05 104.1 1282.39 104.267 1282.59 104.8C1282.65 106.133 1282.85 107.567 1283.19 109.1C1283.52 110.633 1284.05 112 1284.79 113.2C1285.52 114.4 1286.45 115.333 1287.59 116C1288.79 116.6 1290.25 116.7 1291.99 116.3C1292.59 116.167 1292.85 116.367 1292.79 116.9C1292.79 117.367 1292.52 117.667 1291.99 117.8C1290.65 118.133 1289.45 118.2 1288.39 118C1287.32 117.8 1286.39 117.4 1285.59 116.8C1284.79 116.2 1284.12 115.433 1283.59 114.5C1283.05 113.567 1282.59 112.567 1282.19 111.5C1282.12 112.367 1281.92 113.3 1281.59 114.3C1281.25 115.3 1280.82 116.233 1280.29 117.1C1279.75 117.967 1279.05 118.7 1278.19 119.3C1277.39 119.833 1276.45 120.1 1275.39 120.1C1273.92 120.1 1272.72 119.533 1271.79 118.4C1270.92 117.267 1270.19 115.933 1269.59 114.4C1269.05 112.867 1268.62 111.267 1268.29 109.6C1268.02 107.933 1267.79 106.533 1267.59 105.4C1267.05 106.533 1266.59 107.7 1266.19 108.9C1265.85 110.1 1265.49 111.3 1265.09 112.5C1264.69 113.7 1264.22 114.867 1263.69 116C1263.22 117.067 1262.59 118.067 1261.79 119C1261.19 119.467 1260.79 119.4 1260.59 118.8C1260.25 117.867 1259.99 116.4 1259.79 114.4C1259.59 112.4 1259.49 110.3 1259.49 108.1C1259.55 105.833 1259.69 103.7 1259.89 101.7C1260.15 99.7 1260.55 98.2333 1261.09 97.3ZM1303.5 106C1303.63 106.333 1303.5 106.667 1303.1 107C1302.76 107.333 1302.43 107.333 1302.1 107C1302.36 108.267 1302.7 109.6 1303.1 111C1303.5 112.4 1303.9 113.767 1304.3 115.1C1304.7 116.367 1305.13 117.533 1305.6 118.6C1306.06 119.6 1306.5 120.367 1306.9 120.9C1307.03 121.3 1306.9 121.633 1306.5 121.9C1306.16 122.233 1305.83 122.233 1305.5 121.9C1304.36 120.233 1303.6 118.5 1303.2 116.7C1302.8 114.9 1302.36 113.033 1301.9 111.1L1301.4 109.4C1301.06 111.2 1300.43 112.8 1299.5 114.2C1298.9 115 1298.13 115.767 1297.2 116.5C1296.33 117.233 1295.43 117.733 1294.5 118C1293.63 118.2 1292.83 118.067 1292.1 117.6C1291.36 117.133 1290.86 116.133 1290.6 114.6C1290.4 113.2 1290.53 111.8 1291 110.4C1291.46 108.933 1292.13 107.633 1293 106.5C1293.93 105.3 1294.96 104.333 1296.1 103.6C1297.3 102.8 1298.43 102.333 1299.5 102.2V101.8C1299.63 101.467 1299.83 101.233 1300.1 101.1C1300.43 100.967 1300.73 101.067 1301 101.4L1301.2 102.6C1302.33 103.067 1303.1 104.2 1303.5 106ZM1298.3 113.6C1299.23 112.133 1299.76 110.567 1299.9 108.9C1300.03 107.233 1300 105.567 1299.8 103.9C1299 103.767 1298.1 104 1297.1 104.6C1296.1 105.133 1295.2 105.9 1294.4 106.9C1293.6 107.9 1292.96 109.033 1292.5 110.3C1292.03 111.5 1291.9 112.633 1292.1 113.7C1292.3 114.833 1292.63 115.6 1293.1 116C1293.56 116.333 1294.1 116.467 1294.7 116.4C1295.3 116.267 1295.9 115.967 1296.5 115.5C1297.16 114.967 1297.76 114.333 1298.3 113.6Z" fill="#6500FF"/>
<path d="M322.1 56.8C321.433 54.2667 320.7 51.7667 319.9 49.3C319.1 46.8333 318.233 44.3333 317.3 41.8C317.033 41.7333 316.867 41.6 316.8 41.4C316.8 41.2 316.833 41 316.9 40.8C317.033 40.6 317.2 40.4667 317.4 40.4C317.667 40.2667 317.933 40.2667 318.2 40.4C318.667 40.8 319.133 41.7 319.6 43.1C320.133 44.4333 320.633 45.9 321.1 47.5C321.633 49.1 322.1 50.7 322.5 52.3C322.967 53.9 323.3 55.1667 323.5 56.1L328.4 54C328.867 54 329.167 54.2 329.3 54.6C329.433 54.9333 329.267 55.2667 328.8 55.6C328.133 55.9333 327.4 56.2667 326.6 56.6C325.8 56.9333 324.933 57.2667 324 57.6C324.533 59.7333 325 61.8333 325.4 63.9C325.8 65.9667 326.133 68.0667 326.4 70.2C326.533 71.5333 326.6 73.0333 326.6 74.7C326.6 76.4333 326.4 77.9667 326 79.3C325.333 81.7 324.1 83.3667 322.3 84.3C320.567 85.3 318.6 85.7 316.4 85.5C314.267 85.3667 312.133 84.7667 310 83.7C307.867 82.7 306.1 81.4 304.7 79.8C303.367 78.2667 302.6 76.5 302.4 74.5C302.2 72.5667 302.967 70.6333 304.7 68.7C306.1 67.1 307.467 65.7667 308.8 64.7C310.133 63.6333 311.733 62.5333 313.6 61.4C314.933 60.5333 316.3 59.7333 317.7 59C319.1 58.2 320.567 57.4667 322.1 56.8ZM323.2 81.8C324.2 80.5333 324.8 78.9 325 76.9C325.2 74.9 325.167 72.7667 324.9 70.5C324.7 68.3 324.333 66.1333 323.8 64C323.333 61.8 322.9 59.9 322.5 58.3C320.567 59.1667 318.567 60.1667 316.5 61.3C314.5 62.3667 312.6 63.5333 310.8 64.8C309.067 66.0667 307.567 67.4333 306.3 68.9C305.1 70.3 304.367 71.8 304.1 73.4C303.9 74.6667 304.1 75.8667 304.7 77C305.367 78.2 306.267 79.2667 307.4 80.2C308.533 81.2 309.833 82 311.3 82.6C312.833 83.2667 314.333 83.7 315.8 83.9C317.267 84.1 318.667 84.0333 320 83.7C321.333 83.4333 322.4 82.8 323.2 81.8ZM342.537 55C342.67 55.3333 342.537 55.6667 342.137 56C341.803 56.3333 341.47 56.3333 341.137 56C341.403 57.2667 341.737 58.6 342.137 60C342.537 61.4 342.937 62.7667 343.337 64.1C343.737 65.3667 344.17 66.5333 344.637 67.6C345.103 68.6 345.537 69.3667 345.937 69.9C346.07 70.3 345.937 70.6333 345.537 70.9C345.203 71.2333 344.87 71.2333 344.537 70.9C343.403 69.2333 342.637 67.5 342.237 65.7C341.837 63.9 341.403 62.0333 340.937 60.1L340.437 58.4C340.103 60.2 339.47 61.8 338.537 63.2C337.937 64 337.17 64.7667 336.237 65.5C335.37 66.2333 334.47 66.7333 333.537 67C332.67 67.2 331.87 67.0667 331.137 66.6C330.403 66.1333 329.903 65.1333 329.637 63.6C329.437 62.2 329.57 60.8 330.037 59.4C330.503 57.9333 331.17 56.6333 332.037 55.5C332.97 54.3 334.003 53.3333 335.137 52.6C336.337 51.8 337.47 51.3333 338.537 51.2V50.8C338.67 50.4667 338.87 50.2333 339.137 50.1C339.47 49.9667 339.77 50.0667 340.037 50.4L340.237 51.6C341.37 52.0667 342.137 53.2 342.537 55ZM337.337 62.6C338.27 61.1333 338.803 59.5667 338.937 57.9C339.07 56.2333 339.037 54.5667 338.837 52.9C338.037 52.7667 337.137 53 336.137 53.6C335.137 54.1333 334.237 54.9 333.437 55.9C332.637 56.9 332.003 58.0333 331.537 59.3C331.07 60.5 330.937 61.6333 331.137 62.7C331.337 63.8333 331.67 64.6 332.137 65C332.603 65.3333 333.137 65.4667 333.737 65.4C334.337 65.2667 334.937 64.9667 335.537 64.5C336.203 63.9667 336.803 63.3333 337.337 62.6ZM353.764 54.8C354.164 55.2667 354.331 55.7333 354.264 56.2C354.197 56.6667 354.064 56.9667 353.864 57.1C353.931 58.2333 353.964 59.3333 353.964 60.4C354.031 61.4 354.131 62.4 354.264 63.4C354.331 63.8 354.431 64.5 354.564 65.5C354.764 66.4333 354.997 67.4 355.264 68.4C355.531 69.3333 355.831 70.1333 356.164 70.8C356.497 71.5333 356.864 71.8 357.264 71.6C357.797 71.2667 358.097 71.3 358.164 71.7C358.297 72.1667 358.164 72.5667 357.764 72.9C356.831 73.5 356.031 73.4 355.364 72.6C354.764 71.8667 354.264 70.9 353.864 69.7C353.531 68.5 353.264 67.3 353.064 66.1C352.931 64.9 352.864 64.1667 352.864 63.9C352.731 63.3667 352.631 62.7333 352.564 62C352.497 61.2667 352.431 60.6 352.364 60C352.031 60.8 351.531 61.5667 350.864 62.3C350.197 62.9667 349.464 63.4333 348.664 63.7C347.931 63.9667 347.164 64 346.364 63.8C345.564 63.6 344.931 63 344.464 62C343.931 60.9333 343.831 59.8667 344.164 58.8C344.497 57.7333 345.097 56.8 345.964 56C346.831 55.2 347.831 54.6 348.964 54.2C350.097 53.7333 351.197 53.6 352.264 53.8L351.364 33.2C351.564 32.9333 351.764 32.7333 351.964 32.6C352.231 32.4667 352.464 32.5667 352.664 32.9C352.864 34.1 353.031 35.7 353.164 37.7C353.297 39.6333 353.397 41.7 353.464 43.9C353.531 46.0333 353.597 48.1 353.664 50.1C353.731 52.0333 353.764 53.6 353.764 54.8ZM349.064 62C350.064 61.0667 350.797 60.0667 351.264 59C351.797 57.9333 352.164 56.7667 352.364 55.5C351.631 55.3 350.797 55.3333 349.864 55.6C348.931 55.8 348.097 56.2 347.364 56.8C346.631 57.3333 346.064 58 345.664 58.8C345.264 59.6 345.264 60.4333 345.664 61.3C345.997 61.9 346.464 62.3 347.064 62.5C347.664 62.7 348.331 62.5333 349.064 62ZM356.543 59.9C356.61 58.8333 356.843 57.7667 357.243 56.7C357.643 55.6333 358.176 54.7333 358.843 54C359.51 53.2667 360.243 52.7667 361.043 52.5C361.843 52.1667 362.676 52.2333 363.543 52.7C364.943 53.4333 365.71 54.3667 365.843 55.5C366.043 56.5667 365.81 57.6 365.143 58.6C364.476 59.5333 363.51 60.3667 362.243 61.1C361.043 61.7667 359.71 62.0667 358.243 62C358.643 63.1333 359.476 63.9 360.743 64.3C362.01 64.6333 363.81 64.1333 366.143 62.8C366.743 62.6667 367.01 62.8 366.943 63.2C366.943 63.6 366.776 63.9333 366.443 64.2C365.376 64.8 364.21 65.3 362.943 65.7C361.743 66.0333 360.51 65.9 359.243 65.3C358.51 64.9667 357.843 64.4333 357.243 63.7C356.71 62.9 356.476 61.6333 356.543 59.9ZM362.743 54.2C362.01 53.9333 361.343 53.9667 360.743 54.3C360.143 54.5667 359.61 55.0333 359.143 55.7C358.743 56.3 358.41 57.0333 358.143 57.9C357.943 58.7 357.843 59.5 357.843 60.3C359.043 60.6333 360.11 60.5667 361.043 60.1C362.043 59.6333 362.81 59.0333 363.343 58.3C363.943 57.5667 364.21 56.8 364.143 56C364.076 55.2 363.61 54.6 362.743 54.2Z" fill="#6500FF"/>
</svg>
